<?xml version="1.0" encoding="utf-8"?>
<svg xmlns="http://www.w3.org/2000/svg" viewBox="604.2843 472.6065 291.9644 474.6801" width="291.964px" height="474.68px" preserveAspectRatio="none"><g transform="matrix(1.8436440229415894, 0, 0, 1.8436440229415894, -797.6676025390625, -356.9306640625)" style="" id="object-0"><g transform="matrix(0.606173, 0, 0, 0.607595, 635.401184, 449.184814)" style=""><path d="M 260.63 1.25 L 271.88 1.25 L 286.88 6.25 Q 301.02 12.73 310 24.38 L 325 44.38 L 328.75 60.63 L 343.75 81.88 Q 347.5 85.94 346.25 93.75 L 333.13 96.25 L 321.88 105 L 318.13 100 L 316.88 101.25 L 307.5 101.25 L 305 109.38 L 307.5 118.13 L 295.63 133.75 L 292.5 135.63 L 291.25 139.38 L 291.88 141.25 Q 289.38 136.25 286.88 141.25 Q 279.11 140.36 276.25 144.38 L 272.5 176.88 L 268.75 184.38 L 266.25 200.63 L 270 220.63 L 267.5 226.88 L 263.13 251.25 L 262.5 209.38 L 263.75 208.13 L 263.75 198.13 L 262.5 198.13 L 261.25 230.63 L 260 231.88 L 261.25 238.13 L 260 241.88 L 260 269.38 L 256.88 285 L 255 281.88 L 257.5 276.88 L 256.25 275.63 L 258.75 268.13 L 256.25 266.88 L 258.75 266.25 L 257.5 260.63 L 258.75 258.13 L 258.75 255.63 L 258.13 253.75 L 256.25 254.38 L 258.75 250.63 L 256.25 250.63 L 258.75 243.13 Q 254.9 240.94 256.88 238.75 Q 252.71 240.16 253.75 236.88 Q 256.87 235 252.5 233.13 L 250.63 216.25 L 248.13 222.5 L 246.25 218.13 L 248.75 211.88 L 246.25 206.88 Q 241.9 190.6 232.5 179.38 L 230 165.63 L 231.25 163.13 Q 226.88 161.25 230 159.38 L 226.25 146.88 L 226.25 126.88 L 231.25 114.38 L 231.25 111.88 L 230 104.38 L 226.25 98.75 L 215 90.63 L 210 84.38 L 210 79.38 L 206.25 70.63 Q 209.38 68.75 207.5 61.88 L 206.25 59.38 L 211.25 57.5 L 211.25 53.75 Q 214.58 55.16 213.75 51.88 L 217.5 40.63 L 216.25 38.13 L 218.13 38.75 Q 222.29 40.16 221.25 36.88 L 225 35 L 226.25 30.63 L 234.38 21.25 Q 238.77 14.95 246.25 13.75 Q 244.37 9.06 248.13 10 L 260.63 1.25 Z M 291 48 L 293 51 L 295 48 L 291 48 Z M 295 50 L 295 52 L 300 54 L 301 57 L 299 62 Q 297 66 301 65 Q 305 67 300 69 L 301 71 L 305 66 L 304 54 L 302 55 L 301 53 L 295 50 Z M 251 56 L 239 59 L 228 59 L 225 66 L 231 81 L 234 83 L 241 91 L 243 106 L 244 108 Q 250 109 249 106 L 253 104 Q 258 102 255 99 L 256 98 Q 258 98 258 103 L 254 106 L 256 109 L 256 111 L 266 108 L 270 108 L 266 111 Q 262 110 264 115 L 270 114 L 268 118 L 271 123 L 276 121 Q 277 117 279 120 L 287 111 Q 290 112 289 109 L 291 109 L 293 98 L 293 96 L 290 88 Q 288 85 287 88 L 285 82 L 286 79 L 284 79 L 285 77 L 283 76 L 279 68 L 269 60 L 263 60 L 256 56 L 251 56 Z M 296 78 L 295 84 L 296 84 L 296 78 Z M 303 81 L 301 83 L 303 90 L 305 84 L 303 81 Z M 306 86 L 305 89 L 308 91 L 306 86 Z M 299 89 L 299 92 L 301 93 L 299 89 Z M 328 93 L 330 94 Q 331 92 328 93 Z M 296 94 L 294 98 L 296 99 L 296 94 Z M 266 171 L 265 186 L 266 186 L 266 171 Z M 247 184 L 248 187 L 249 187 Q 250 183 247 184 Z M 264 190 L 264 197 L 265 197 L 264 190 Z M 249 193 L 249 196 Q 253 194 249 193 Z M 313 198 Q 311 202 314 201 L 315 198 L 313 198 Z M 316 199 L 316 201 L 319 199 L 316 199 Z " style="fill: rgba(0, 0, 0, 1);"/><path d="M 251.88 71.25 L 255 71.88 L 247.5 76.88 L 249.38 80 L 255 78.75 Q 253.5 74.17 260 76.25 L 258.75 83.13 L 254.38 87.5 L 245 86.25 Q 246.69 81.67 239.38 83.75 L 237.5 80.63 Q 241.72 72.97 251.88 71.25 Z " style="fill: rgba(0, 0, 0, 1);"/><path d="M 340.63 115 Q 362.88 116.49 372.5 130.63 L 375 134.38 L 365.63 126.25 L 355.63 120 L 341.25 117.5 L 340.63 120 L 338.13 118.75 L 325 130.63 L 322.5 135.63 L 322.5 156.88 L 326.25 169.38 L 328.75 188.13 L 332.5 199.38 Q 330.63 213.75 333.75 223.13 Q 340.21 235.42 342.5 251.88 L 353.75 273.13 Q 350.63 275 352.5 281.88 L 346.25 290 L 338.75 294.38 L 337.5 302.5 L 326.25 311.88 L 323.75 317.5 L 318.75 315.63 L 338.75 284.38 L 336.88 280 L 331.88 282.5 L 332.5 280.63 L 336.25 274.38 L 332.5 264.38 L 330 249.38 L 327.5 245.63 L 327.5 238.13 L 324.38 226.25 L 323.75 230 L 321.25 229.38 L 323.75 219.38 L 322.5 216.25 L 318.75 218.13 L 314.38 227.5 L 311.88 221.25 L 309.38 225 L 306.25 223.75 Q 307.94 219.17 300.63 221.25 L 300.63 220 Q 305.42 216.67 315.63 218.75 L 317.5 216.88 L 316.88 213.75 L 315.63 216.25 L 315 214.38 L 316.88 211.25 L 318.13 213.75 L 321.25 205.63 L 318.75 205.63 L 319.38 203.75 L 299.38 198.75 Q 297.5 201.87 295.63 197.5 L 280.63 195 L 278.75 193.13 L 283.13 188.75 L 284.38 190 L 290 190.63 L 288.75 195 L 299.38 196.25 L 301.25 195.63 L 301.88 197.5 Q 303.75 194.37 305.63 198.75 L 311.25 196.88 L 308.13 196.25 L 306.25 196.88 Q 307.19 194.06 304.38 195 L 304.38 193.75 L 320 197.5 L 317.5 190.63 L 316.25 143.13 L 321.25 129.38 L 328.75 121.88 Q 325.31 119.69 330.63 117.5 L 333.13 118.75 L 340.63 115 Z " style="fill: rgba(0, 0, 0, 1);"/><path d="M 341.88 122.5 L 347.5 134.38 L 344.38 135 L 343.75 131.88 L 341.88 122.5 Z " style="fill: rgba(0, 0, 0, 1);"/><path d="M 318.13 127.5 L 317.5 129.38 L 313.75 136.88 L 313.75 139.38 L 312.5 141.88 L 313.75 143.13 L 310 146.88 L 309.38 152.5 L 308.13 150 L 306.25 153.13 L 306.88 155 Q 304.06 154.06 305 156.88 L 308.75 158.13 L 305 159.38 Q 303.96 162.66 308.13 161.25 L 310 157.5 L 312.5 158.13 L 309.38 162.5 L 303.13 163.75 Q 299.69 162.19 301.25 155.63 L 303.75 150.63 L 301.25 150.63 L 302.5 144.38 L 314.38 130 L 318.13 127.5 Z " style="fill: rgba(0, 0, 0, 1);"/><path d="M 351.88 128.75 L 351.88 132.5 Q 349.06 133.44 350 130.63 L 351.88 128.75 Z " style="fill: rgba(0, 0, 0, 1);"/><path d="M 348.13 136.25 L 351.25 138.13 Q 348.79 141.92 341.88 141.25 L 341.88 140 Q 346.56 140.94 347.5 138.13 L 348.13 136.25 Z " style="fill: rgba(0, 0, 0, 1);"/><path d="M 353.13 136.25 L 356.25 136.88 L 353.13 137.5 L 353.13 136.25 Z " style="fill: rgba(0, 0, 0, 1);"/><path d="M 282.5 142.5 L 286.88 142.5 L 295 150.63 L 290 152.5 L 288.13 156.25 L 285.63 157.5 L 286.25 155.63 L 290 150.63 Q 287.81 146.56 285.63 151.25 L 280.63 148.75 L 277.5 150 Q 275.42 144.84 280.63 146.25 L 280.63 145 L 278.75 144.38 L 280.63 143.75 L 282.5 144.38 L 282.5 142.5 Z " style="fill: rgba(0, 0, 0, 1);"/><path d="M 280.63 162.5 L 281.25 165.63 L 280 165.63 L 280.63 162.5 Z " style="fill: rgba(0, 0, 0, 1);"/><path d="M 389.38 163.75 L 390 166.88 L 392.5 170.63 L 388.75 168.13 L 387.5 165.63 L 389.38 163.75 Z " style="fill: rgba(0, 0, 0, 1);"/><path d="M 290.63 200 Q 293.44 200.94 292.5 205.63 L 290 204.38 L 289.38 202.5 L 287.5 203.13 L 290.63 200 Z " style="fill: rgba(0, 0, 0, 1);"/><path d="M 275.63 202.5 L 276.25 206.88 L 272.5 209.38 L 275.63 202.5 Z " style="fill: rgba(0, 0, 0, 1);"/><path d="M 286.88 206.25 L 292.5 209.38 L 293.75 213.13 L 290 213.75 Q 291.69 218.33 284.38 216.25 L 283.75 213.13 L 282.5 210.63 L 286.88 206.25 Z " style="fill: rgba(0, 0, 0, 1);"/><path d="M 310.63 210 Q 314.79 208.59 313.75 211.88 L 311.88 211.25 L 309.38 212.5 L 310.63 210 Z " style="fill: rgba(0, 0, 0, 1);"/><path d="M 300.63 213.75 L 311.25 214.38 L 309.38 217.5 L 308.13 215 L 307.5 217.5 Q 303.75 218.75 305 215 L 300.63 215 L 300.63 213.75 Z " style="fill: rgba(0, 0, 0, 1);"/><path d="M 291.88 215 Q 297.34 213.13 296.25 216.88 L 294.38 216.25 Q 290.63 216.88 291.88 215 Z " style="fill: rgba(0, 0, 0, 1);"/><path d="M 409.38 220 L 421.88 220 L 431.25 225.63 L 435 238.13 Q 431.3 249.43 423.75 256.88 L 440 271.88 L 452.5 293.13 L 461.25 318.13 L 462.5 326.88 L 466.25 333.13 L 467.5 338.13 L 467.5 361.88 L 462.5 371.88 L 462.5 388.13 L 463.75 391.88 L 460 395.63 L 460 401.88 L 453.75 411.88 Q 452.81 420.52 448.75 425 L 380.63 425 L 380 423.13 Q 373.75 416.56 372.5 406.25 L 366.25 403.13 Q 367.29 399.84 363.13 401.25 L 360.63 401.25 L 357.5 399.38 L 356.25 395.63 L 358.75 391.88 L 358.13 390 L 360 393.75 Q 364.58 395.44 362.5 388.13 L 359.38 383.75 L 358.75 386.25 L 355.63 385 L 353.75 391.88 L 355 394.38 L 355 396.88 L 353.13 400 L 348.75 397.5 L 345.63 402.5 L 334.38 406.25 L 335 404.38 L 336.25 401.88 L 333.13 396.25 L 329.38 397.5 L 329.38 396.25 L 333.75 394.38 Q 334.69 391.56 331.88 392.5 L 330 393.13 L 328.75 389.38 L 332.5 388.75 L 332.5 374.38 L 329.38 373.75 L 326.88 375 L 325 374.38 Q 325.94 377.19 323.13 376.25 Q 318.65 378.91 318.75 385 L 316.25 385 Q 317.66 388.33 314.38 387.5 L 303.75 395.63 L 305 398.75 Q 302.03 400.94 294.38 400 L 294.38 396.25 L 296.25 396.88 Q 295.21 393.59 299.38 395 L 301.25 395.63 L 298.75 391.88 L 301.88 393.75 Q 304.69 394.69 303.75 391.88 L 307.5 390.63 L 306.88 388.75 Q 308.44 391.56 310 388.13 L 313.75 379.38 L 311.25 379.38 L 317.5 371.88 L 313.13 370 L 310 368.13 L 321.25 361.25 L 320 358.13 L 329.38 356.25 L 330 358.75 L 338.13 360 L 338.13 358.75 L 335 358.13 Q 337.19 354.06 339.38 358.75 L 346.88 360 L 349.38 358.75 L 357.5 360 Q 359.19 364.58 351.88 362.5 L 349.38 362.5 L 345.63 361.25 Q 343.75 365.63 341.88 362.5 L 337.5 364.38 L 353.13 365 L 359.38 363.75 L 362.5 360.63 L 366.25 352.5 L 363.13 353.75 L 362.5 346.88 L 363.75 343.13 L 361.88 343.75 Q 358.59 342.71 360 346.88 L 357.5 346.88 Q 358.44 349.69 355.63 348.75 L 353.13 348.75 Q 348.96 347.34 350 350.63 L 348.13 350 L 345.63 351.25 L 346.88 348.75 Q 368.78 341.28 384.38 327.5 L 398.13 322.5 L 406.25 314.38 L 418.75 286.88 L 418.75 268.13 Q 413.5 261.73 415 250 Q 418.33 251.41 417.5 248.13 L 427.5 235.63 L 428.75 230.63 Q 425.09 226.16 415.63 227.5 L 409.38 230 L 403.75 223.13 L 409.38 220 Z M 333 361 L 336 364 L 338 363 L 333 361 Z M 359 365 L 358 368 Q 363 370 361 378 Q 360 382 354 381 L 356 384 L 359 383 L 364 376 L 360 368 L 361 366 L 359 365 Z M 354 368 L 350 373 L 352 380 Q 351 371 356 368 L 354 368 Z M 334 379 L 334 382 L 336 381 Q 337 377 334 379 Z M 297 398 L 297 399 L 301 398 L 297 398 Z " style="fill: rgba(0, 0, 0, 1);"/><path d="M 296.88 263.75 L 300 264.38 L 296.88 265 L 296.88 263.75 Z " style="fill: rgba(0, 0, 0, 1);"/><path d="M 255.63 290 L 256.25 294.38 L 255 294.38 L 255.63 290 Z " style="fill: rgba(0, 0, 0, 1);"/><path d="M 254.38 297.5 L 255 303.13 L 252.5 304.38 L 254.38 297.5 Z " style="fill: rgba(0, 0, 0, 1);"/><path d="M 253.13 306.25 L 253.75 311.88 L 252.5 311.88 L 253.13 306.25 Z " style="fill: rgba(0, 0, 0, 1);"/><path d="M 319.38 321.25 Q 322.66 320.21 321.25 324.38 L 313.75 334.38 L 313.75 336.88 L 315 340.63 L 313.13 340 L 308.13 336.25 L 307.5 339.38 L 312.5 348.75 L 306.25 344.38 L 303.75 338.13 L 312.5 331.88 L 311.88 328.75 L 310 329.38 L 313.13 325 L 314.38 326.25 L 319.38 321.25 Z " style="fill: rgba(0, 0, 0, 1);"/><path d="M 295.63 323.75 L 302.5 326.88 L 301.25 330 Q 296.09 327.92 297.5 333.13 L 298.75 339.38 L 297.5 339.38 L 296.88 335 L 290.63 356.25 L 289.38 353.75 L 288.75 356.88 L 289.38 358.75 L 286.88 360 L 286.25 358.13 Q 290.21 352.71 290 343.13 L 292.5 340.63 L 291.88 338.75 L 293.75 339.38 L 296.25 329.38 L 295.63 323.75 Z " style="fill: rgba(0, 0, 0, 1);"/><path d="M 305.63 326.25 L 304.38 328.75 L 305.63 326.25 Z " style="fill: rgba(0, 0, 0, 1);"/><path d="M 250.63 340 L 251.25 349.38 L 250 349.38 L 250.63 340 Z " style="fill: rgba(0, 0, 0, 1);"/><path d="M 299.38 341.25 L 303.75 344.38 L 306.25 348.13 L 302.5 350.63 L 301.88 352.5 L 300.63 350 L 296.25 353.13 L 291.88 360 L 291.25 358.13 L 295 353.13 L 295 349.38 L 299.38 341.25 Z " style="fill: rgba(0, 0, 0, 1);"/><path d="M 279.38 363.75 L 280 366.88 L 278.75 366.88 L 279.38 363.75 Z " style="fill: rgba(0, 0, 0, 1);"/><path d="M 245.63 365 L 246.25 368.13 L 245 368.13 L 245.63 365 Z " style="fill: rgba(0, 0, 0, 1);"/><path d="M 286.88 365 L 287.5 368.75 L 285 368.13 L 286.88 365 Z " style="fill: rgba(0, 0, 0, 1);"/><path d="M 330.63 375 L 331.25 381.25 Q 325.16 383.25 327.5 376.25 L 330.63 375 Z " style="fill: rgba(0, 0, 0, 1);"/><path d="M 288.13 377.5 L 288.75 380.63 L 287.5 380.63 L 288.13 377.5 Z " style="fill: rgba(0, 0, 0, 1);"/><path d="M 289.38 385 L 291.25 388.13 L 290 388.13 L 289.38 385 Z " style="fill: rgba(0, 0, 0, 1);"/><path d="M 278.13 386.25 Q 282.03 387.97 281.25 394.38 L 280 394.38 L 278.13 386.25 Z " style="fill: rgba(0, 0, 0, 1);"/><path d="M 244.38 390 L 248.13 392.5 L 251.25 393.75 L 250.63 396.25 L 247.5 394.38 L 245.63 398.75 L 244.38 396.25 L 246.25 395.63 L 243.75 394.38 L 246.25 393.13 L 244.38 390 Z " style="fill: rgba(0, 0, 0, 1);"/><path d="M 248.13 397.5 L 250.63 401.25 Q 247.81 402.19 248.75 399.38 L 248.13 397.5 Z " style="fill: rgba(0, 0, 0, 1);"/><path d="M 283.13 402.5 Q 285.94 403.44 285 408.13 L 283.75 408.13 L 283.13 402.5 Z " style="fill: rgba(0, 0, 0, 1);"/><path d="M 296.88 402.5 Q 304.69 400.31 306.88 403.75 Q 309.06 400.31 316.88 402.5 L 320 403.13 Q 316.88 407.5 308.75 406.88 L 310.63 410 L 311.88 407.5 L 312.5 410 L 315.63 408.75 L 314.38 411.25 L 308.13 412.5 L 303.13 411.25 L 296.88 412.5 L 296.88 411.25 L 300.63 410 L 303.13 410 L 307.5 409.38 Q 305.94 405.94 304.38 408.75 L 299.38 407.5 L 297.5 408.13 Q 296.41 404.37 301.88 406.25 L 301.88 405 Q 295.88 405.06 296.88 402.5 Z " style="fill: rgba(0, 0, 0, 1);"/><path d="M 268.13 403.75 L 268.75 408.13 L 267.5 408.13 L 268.13 403.75 Z " style="fill: rgba(0, 0, 0, 1);"/><path d="M 236.88 406.25 L 238.75 410 L 241.88 408.75 L 242.5 411.88 L 240.63 413.75 L 236.88 408.75 L 235 408.13 L 236.88 406.25 Z " style="fill: rgba(0, 0, 0, 1);"/><path d="M 241.88 406.25 L 246.25 406.88 L 241.88 407.5 L 241.88 406.25 Z " style="fill: rgba(0, 0, 0, 1);"/><path d="M 318.13 407.5 L 318.75 410.63 L 317.5 410.63 L 318.13 407.5 Z " style="fill: rgba(0, 0, 0, 1);"/><path d="M 308.13 413.75 L 310 414.38 L 306.88 416.25 L 308.13 413.75 Z " style="fill: rgba(0, 0, 0, 1);"/><path d="M 326.88 415 L 333.75 415.63 L 330.63 420 Q 333.91 418.96 332.5 423.13 L 330.63 425 L 246.25 425 L 247.5 419.38 L 246.88 417.5 Q 258.48 415.89 264.38 420 L 266.88 418.75 L 281.88 422.5 L 299.38 422.5 L 303.13 421.25 L 309.38 420 L 310.63 421.25 L 325.63 421.25 L 325.63 420 L 315 419.38 L 320 418.75 L 320.63 416.25 L 321.88 418.75 L 322.5 416.25 L 326.88 415 Z " style="fill: rgba(0, 0, 0, 1);"/><path d="M 242.5 417.5 Q 247.08 415.81 245 423.13 L 242.5 424.38 L 242.5 417.5 Z " style="fill: rgba(0, 0, 0, 1);"/></g></g></svg>