<?xml version="1.0" encoding="utf-8"?>
<svg xmlns="http://www.w3.org/2000/svg" viewBox="13.9318 367.981 446.5625 297.5438" width="446.562px" height="297.544px" preserveAspectRatio="none"><g transform="matrix(0.6972920894622803, 0, 0, 0.6989280581474304, 13.931752204895034, 368.207733154297)" style="" id="object-0"><path d="M 353.13 91.25 L 358.75 100.63 L 356.88 102.5 L 336.88 107.5 Q 335.16 112.03 328.75 111.88 L 329.38 113.75 L 325.63 112.5 L 326.88 116.25 L 324.38 115 L 323.75 116.88 Q 326.56 118.44 323.13 120 L 318.75 119.38 L 321.25 118.13 L 318.75 116.88 L 321.25 115.63 L 318.75 114.38 L 320.63 113.75 Q 322.81 117.19 325 111.88 Q 325.94 109.06 323.13 110 L 323.13 108.75 L 328.13 110 L 328.13 107.5 L 331.25 106.88 L 330.63 105 L 332.5 104.38 L 329.38 103.75 L 324.38 107.5 L 325.63 105 L 328.75 103.13 L 330.63 98.75 Q 336.25 98.13 336.88 102.5 L 337.5 98.75 L 335 98.13 L 336.88 97.5 L 340 99.38 L 338.75 96.88 L 353.13 91.25 Z M 334 106 L 331 109 L 331 110 Q 336 111 336 107 L 334 106 Z " style="fill: rgba(172, 208, 232, 1); stroke: rgba(172, 208, 232, 1);"/><path d="M 356.88 106.25 Q 360.16 105.21 358.75 109.38 L 357.5 110.63 L 371.25 124.38 L 378.75 134.38 Q 383.32 151.68 393.75 163.13 L 395 171.88 L 393.75 171.88 L 390 166.88 L 392.5 166.88 Q 393.44 162.19 390.63 161.25 L 386.25 165.63 L 388.75 168.13 L 393.13 177.5 L 394.38 173.75 Q 397.81 175.31 395 176.88 Q 395.44 193.31 401.25 204.38 L 401.25 219.38 L 410 230.63 L 412.5 240.63 L 412.5 243.13 L 417.5 270.63 L 415 271.88 L 415.63 270 Q 411.87 269.06 413.75 273.75 L 417.5 275.63 L 415.63 275 Q 412.81 274.06 413.75 276.88 L 414.38 278.75 Q 411.09 277.92 412.5 281.25 L 415 281.88 L 413.13 282.5 L 411.25 281.88 L 411.25 285 Q 415.94 283.12 415 286.88 L 417.5 285.63 L 418.13 282.5 L 418.75 285.63 L 417.5 288.75 L 415 289.38 L 416.25 291.88 L 410 306.88 L 400.63 320 L 388.13 326.25 L 389.38 322.5 L 383.13 326.25 L 378.75 325 L 378.13 327.5 L 377.5 325 L 372.5 326.88 L 373.13 328.75 L 369.38 327.5 L 368.13 330 L 370.63 328.75 L 369.38 331.25 L 364.38 330 L 352.5 336.25 L 353.13 338.75 L 361.88 333.75 L 360.63 336.25 L 350 340 L 351.25 343.13 L 347.5 345.63 L 350 346.88 L 338.75 351.88 L 341.88 353.75 L 346.88 351.25 L 353.75 354.38 L 351.25 355.63 L 355 358.13 L 351.25 358.75 L 349.38 355 L 348.75 356.88 L 349.38 358.75 L 342.5 355 L 341.88 357.5 L 336.88 353.75 L 330.63 357.5 Q 326.88 355.63 330.63 353.75 L 333.13 353.75 L 336.25 351.88 L 335.63 348.75 L 330.63 352.5 L 331.88 348.75 L 326.25 353.13 L 327.5 355.63 Q 326.02 358.75 321.25 357.5 L 323.13 353.75 L 325 354.38 L 325 352.5 Q 320.31 354.38 321.25 350.63 L 315 345.63 L 313.75 343.13 L 315.63 342.5 L 319.38 343.75 L 322.5 340.63 L 321.25 335 Q 324.58 336.41 323.75 333.13 L 321.25 333.13 Q 320.21 329.84 324.38 331.25 L 326.25 330.63 L 325 333.75 Q 329.79 334.69 331.25 330.63 Q 332.81 323.02 329.38 323.75 L 325 321.88 L 335.63 321.25 L 340.63 322.5 L 340.63 321.25 L 336.88 318.75 L 335 318.13 L 335 320 L 330 320 L 328.13 316.25 L 323.13 318.75 L 325 315.63 L 335.63 303.75 Q 339.37 304.84 337.5 299.38 L 340.63 292.5 L 344.38 295 L 346.25 291.88 Q 342.81 289.69 348.13 287.5 Q 346.04 290 350.63 292.5 L 355.63 293.75 L 355.63 292.5 L 350 289.38 L 351.25 285.63 L 348.75 285.63 L 352.5 283.75 L 355 268.75 Q 349.84 270.42 351.25 266.25 Q 365.18 267.97 373.75 263.13 L 373.13 261.25 Q 375 265.62 376.88 262.5 L 380 261.88 L 379.38 260 L 381.88 262.5 L 385.63 261.25 L 390.63 263.75 L 393.13 262.5 L 395 263.13 Q 394.06 260.31 396.88 261.25 L 396.88 260 L 366.25 251.25 L 365.63 253.75 L 364.38 251.25 L 360.63 253.75 L 360 250 L 353.13 250 L 352.5 251.88 L 351.25 251.88 L 350.63 250 L 349.38 253.75 L 348.13 250 L 344.38 252.5 L 344.38 250 Q 341.09 251.04 342.5 246.88 Q 338.8 241.82 338.75 233.13 L 333.75 223.13 L 332.5 189.38 L 328.75 176.88 L 330 175.63 L 331.25 151.25 L 328.13 150 L 326.25 160 Q 322.08 161.64 323.75 155.63 L 323.75 150.63 L 322.5 138.13 Q 324.81 128.56 331.88 123.75 L 336.88 120 L 340 120 L 341.25 131.88 L 339.38 131.25 Q 336.09 130.42 337.5 133.75 L 342.5 134.38 L 338.13 136.25 L 333.75 138.13 L 337.5 138.75 L 336.25 141.88 L 341.88 142.5 L 345.63 141.25 L 346.88 142.5 L 350.63 138.75 L 360 136.88 L 353.75 134.38 L 355.63 135 Q 360.31 136.25 358.75 132.5 L 356.25 131.88 L 356.88 130 L 353.13 131.25 L 352.5 129.38 L 353.13 127.5 L 348.75 125.63 L 346.88 120 L 346.25 124.38 L 347.5 126.88 L 346.25 126.88 L 344.38 122.5 L 342.5 123.13 L 343.75 120.63 L 341.25 119.38 L 350.63 118.75 Q 367.33 123.92 375.63 137.5 L 376.25 135.63 L 365.63 122.5 L 351.88 116.25 L 335.63 115 L 334.38 113.75 L 333.75 115.63 L 334.38 117.5 L 331.25 115.63 L 334.38 112.5 L 338.13 113.75 L 340.63 112.5 L 343.13 112.5 L 357.5 108.13 L 356.88 106.25 Z M 351 124 L 350 126 L 354 126 L 351 124 Z M 351 140 L 349 144 L 355 142 L 351 140 Z M 331 145 L 331 148 L 329 148 L 329 150 L 332 151 L 334 146 L 331 145 Z M 382 154 L 383 158 L 384 158 L 382 154 Z M 398 213 L 398 216 L 400 213 L 398 213 Z M 391 268 L 389 269 L 389 273 L 391 269 L 391 268 Z M 401 269 L 399 271 L 401 274 L 403 269 L 401 269 Z M 394 271 L 394 273 L 398 272 L 394 271 Z M 405 274 L 405 276 L 408 274 L 405 274 Z M 411 285 Q 406 298 396 307 L 398 309 L 396 309 L 389 317 L 392 319 L 397 315 L 396 317 L 398 318 L 410 299 L 408 299 L 411 298 L 410 296 Q 413 294 413 290 L 410 289 L 412 289 L 414 289 Q 415 286 411 288 L 411 285 Z M 401 295 L 399 296 L 378 298 L 369 300 L 369 298 L 361 299 L 362 301 Q 369 299 368 304 L 371 305 L 372 303 L 376 304 L 378 308 L 381 306 L 380 308 L 388 313 Q 387 316 390 315 L 404 296 L 401 295 Z M 351 299 L 352 303 Q 355 303 354 300 L 351 299 Z M 356 300 L 355 303 L 356 303 L 356 300 Z M 334 306 Q 333 310 336 309 Q 338 305 334 306 Z M 372 315 L 357 321 L 352 319 Q 345 318 344 322 L 358 323 L 359 324 L 378 321 L 377 319 L 373 320 L 374 317 Q 375 314 372 315 Z M 392 320 L 391 323 L 394 321 L 392 320 Z M 364 325 L 364 328 L 358 330 Q 355 329 356 333 L 363 330 L 366 326 L 364 325 Z M 368 325 L 367 328 L 370 326 L 368 325 Z M 347 343 L 346 345 L 349 343 L 347 343 Z M 342 345 Q 338 347 342 349 L 347 348 L 347 346 L 343 348 L 344 346 L 342 345 Z " style="fill: rgba(172, 208, 232, 1); stroke: rgba(172, 208, 232, 1);"/><path d="M 343.13 108.75 L 347.5 109.38 L 340.63 111.25 L 340.63 110 L 343.13 108.75 Z " style="fill: rgba(172, 208, 232, 1); stroke: rgba(172, 208, 232, 1);"/><path d="M 318.13 121.25 L 318.75 123.75 L 316.25 123.13 L 318.13 121.25 Z " style="fill: rgba(172, 208, 232, 1); stroke: rgba(172, 208, 232, 1);"/><path d="M 320.63 123.75 L 323.13 125 L 325 124.38 L 321.25 130 Q 317.92 131.41 318.75 128.13 Q 322.6 125.94 320.63 123.75 Z " style="fill: rgba(172, 208, 232, 1); stroke: rgba(172, 208, 232, 1);"/><path d="M 318.13 125 L 315.63 128.75 L 310.63 130 L 310.63 128.75 L 314.38 126.25 Q 316.25 129.37 318.13 125 Z " style="fill: rgba(172, 208, 232, 1); stroke: rgba(172, 208, 232, 1);"/><path d="M 306.88 131.25 Q 309.69 130.31 308.75 133.13 L 311.25 133.13 Q 302 139.78 298.75 151.25 L 295 153.13 L 295.63 155 L 293.75 155.63 L 295 156.88 L 293.13 160 L 295.63 160 L 300.63 155 L 301.25 156.88 L 300 159.38 L 303.13 165 L 310 163.75 L 313.13 158.75 L 313.75 160.63 Q 310.31 163.44 310.63 170 L 308.75 169.38 L 311.25 175.63 L 309.38 180 L 308.13 175 L 307.5 180.63 L 307.5 183.13 L 305 190.63 L 306.88 190 Q 311.04 188.59 310 191.88 L 311.25 194.38 L 309.38 193.75 L 302.5 192.5 L 300.63 188.75 L 298.75 189.38 L 299.38 191.25 L 288.13 188.75 L 285.63 190 Q 284.06 187.19 278.13 188.75 L 275 190 L 274.38 192.5 L 268.75 190.63 L 270.63 185 L 271.25 190 Q 275.94 191.88 275 188.13 L 277.5 184.38 L 276.25 178.75 L 271.88 181.25 L 271.25 179.38 L 275.63 177.5 L 281.25 178.75 L 281.25 173.13 L 295 150.63 L 293.13 146.25 Q 291.56 149.06 290 145.63 L 293.13 145 L 296.88 146.25 L 296.25 144.38 L 298.13 141.25 L 300 140.63 L 297.5 139.38 L 300 138.13 L 300.63 140 Q 301.25 133.13 306.88 131.25 Z " style="fill: rgba(172, 208, 232, 1); stroke: rgba(172, 208, 232, 1);"/><path d="M 316.88 137.5 L 317.5 139.38 L 314.38 147.5 L 313.75 141.88 L 316.88 137.5 Z " style="fill: rgba(172, 208, 232, 1); stroke: rgba(172, 208, 232, 1);"/><path d="M 340.63 138.75 L 343.75 139.38 L 340.63 140 L 340.63 138.75 Z " style="fill: rgba(172, 208, 232, 1); stroke: rgba(172, 208, 232, 1);"/><path d="M 275.63 153.75 L 276.25 158.13 L 275 158.13 L 275.63 153.75 Z " style="fill: rgba(172, 208, 232, 1); stroke: rgba(172, 208, 232, 1);"/><path d="M 324.38 161.25 Q 328.12 160.16 326.25 165.63 L 325 165.63 L 324.38 161.25 Z " style="fill: rgba(172, 208, 232, 1); stroke: rgba(172, 208, 232, 1);"/><path d="M 269.38 192.5 L 271.25 193.13 L 268.13 195 L 269.38 192.5 Z " style="fill: rgba(172, 208, 232, 1); stroke: rgba(172, 208, 232, 1);"/><path d="M 314.38 192.5 L 315 195 L 312.5 194.38 L 314.38 192.5 Z " style="fill: rgba(172, 208, 232, 1); stroke: rgba(172, 208, 232, 1);"/><path d="M 273.13 193.75 L 280 195 Q 278.33 200.16 282.5 198.75 L 283.13 196.25 L 295.63 198.75 L 298.13 201.25 Q 300 196.88 301.88 200 L 310 203.13 L 310.63 205 Q 312.19 202.19 313.75 205.63 L 310.63 206.25 L 308.75 204.38 Q 309.69 201.56 306.88 202.5 L 304.38 203.75 L 300.63 201.25 L 297.5 203.13 L 295.63 200 L 292.5 201.88 L 290.63 198.75 L 285 201.88 L 286.25 204.38 L 283.13 208.75 L 280 207.5 Q 281.25 203.75 277.5 205 L 277.5 199.38 L 278.13 197.5 Q 274.84 196.67 276.25 200 L 271.88 200 L 272.5 201.88 L 271.25 204.38 L 273.13 207.5 Q 270.31 208.44 271.25 205.63 L 268.75 204.38 L 268.13 206.25 L 267.5 201.25 Q 271.25 202.5 270 198.75 L 267.5 198.13 L 272.5 196.88 Q 269.69 195.31 273.13 193.75 Z " style="fill: rgba(172, 208, 232, 1); stroke: rgba(172, 208, 232, 1);"/><path d="M 294.38 205 L 297.5 206.25 L 298.75 211.25 Q 293.59 209.17 295 214.38 L 293.75 214.38 L 295 206.88 L 294.38 205 Z " style="fill: rgba(172, 208, 232, 1); stroke: rgba(172, 208, 232, 1);"/><path d="M 269.38 207.5 L 270.63 210 L 271.88 208.75 L 276.88 213.75 L 278.75 213.13 L 278.13 211.25 L 280 211.88 L 277.5 208.13 L 279.38 208.75 Q 282.19 207.81 281.25 210.63 L 281.88 212.5 L 280 213.13 L 282.5 213.75 L 281.88 216.25 L 279.38 215 L 280.63 218.75 L 278.75 218.13 Q 277.81 220.94 280.63 220 L 288.13 225 Q 289.69 221.25 295 222.5 Q 296.41 225.83 293.13 225 L 293.13 226.25 L 298.13 225 Q 301.87 226.87 300 234.38 L 303.13 237.5 L 305.63 232.5 L 305 234.38 L 305.63 238.75 L 308.13 232.5 L 310 238.13 L 307.5 238.13 L 305.63 250 L 305 247.5 L 302.5 248.13 L 305 253.13 L 300.63 261.25 Q 297.34 262.29 298.75 258.13 Q 302 256.38 301.25 250.63 L 300 250.63 L 299.38 252.5 L 298.75 250.63 L 301.25 241.88 L 298.75 243.13 L 297.5 250 L 293.75 251.88 L 295 256.88 L 293.75 256.88 L 291.88 253.75 L 291.25 256.25 Q 287.08 254.61 288.75 260.63 L 291.25 260.63 L 288.13 265 L 285.63 263.75 L 285 265.63 L 285.63 267.5 L 283.13 267.5 L 280.63 266.25 L 280 268.13 L 281.25 271.25 L 283.75 270.63 L 283.13 268.75 L 285.63 270 L 292.5 267.5 L 291.25 270.63 L 293.75 271.25 L 295.63 266.25 L 300 267.5 Q 298.59 264.17 301.88 265 L 303.75 263.13 L 313.75 231.25 Q 317.08 229.84 316.25 233.13 L 308.75 250.63 L 305 265.63 L 305.63 267.5 L 303.75 268.13 L 306.25 269.38 L 302.5 275.63 Q 305.62 277.5 301.25 279.38 L 300 281.88 Q 303.12 283.75 298.75 285.63 L 300 290 L 296.25 291.88 L 297.5 295.63 L 293.75 297.5 L 301.25 268.13 L 300 268.13 L 298.75 275 L 294.38 273.75 L 293.75 276.88 L 296.25 278.13 L 296.88 276.25 L 297.5 278.13 L 293.75 290 L 290 290.63 L 291.88 293.75 L 290 294.38 L 291.25 300.63 L 290 304.38 L 291.25 304.38 L 292.5 298.75 L 296.25 299.38 L 292.5 305.63 L 295 306.25 L 293.75 313.75 Q 289.58 312.11 291.25 318.13 L 287.5 329.38 L 285 331.88 L 286.25 334.38 L 285 336.88 L 285 339.38 L 283.75 349.38 L 283.75 351.88 L 283.13 356.25 L 280 354.38 Q 280.83 357.66 277.5 356.25 L 277.5 360.63 L 278.13 362.5 Q 275.31 361.56 276.25 364.38 L 278.75 364.38 L 276.88 367.5 L 275 366.88 L 276.25 373.13 Q 271.25 375.63 276.25 378.13 Q 277.81 384.69 274.38 386.25 L 273.75 383.13 Q 274.69 380.31 271.88 381.25 L 272.5 383.13 L 273.13 391.25 L 276.25 390 L 277.5 398.13 L 276.25 398.13 L 275.63 395 L 274.38 397.5 L 271.88 395 L 268.75 395.63 L 268.13 398.75 L 266.25 393.75 L 261.25 394.38 L 261.25 396.88 L 260 400.63 L 267.5 405.63 L 263.75 406.88 L 266.25 407.5 Q 264.84 410.83 268.13 410 L 271.25 405.63 L 268.75 401.25 L 273.13 400 L 280 405.63 Q 276.56 407.81 281.88 410 L 287.5 411.88 L 285 413.13 L 287.5 413.75 L 288.13 416.25 L 291.88 413.75 L 294.38 413.75 L 306.88 412.5 L 306.88 413.75 L 296.25 415.63 L 296.88 417.5 L 293.13 416.25 L 286.88 417.5 L 283.13 416.25 L 279.38 416.25 L 266.25 411.25 L 266.88 415 L 269.38 415 L 272.5 415.63 L 258.13 417.5 L 255.63 412.5 L 252.5 413.13 L 250.63 417.5 L 243.75 416.25 L 246.25 411.88 L 242.5 410.63 L 246.88 410 L 251.88 411.25 L 251.88 410 Q 248.12 411.09 250 405.63 L 245 402.5 L 245.63 400 L 252.5 402.5 L 251.25 399.38 L 252.5 395.63 Q 249.37 393.75 253.75 391.88 L 250.63 388.75 L 250 392.5 L 243.75 388.13 L 245 385.63 L 243.75 380.63 L 246.25 374.38 L 248.75 356.88 L 253.13 348.75 L 255.63 350 Q 259 345.25 257.5 335.63 L 256.25 335.63 L 255 339.38 L 256.25 341.88 L 255 341.88 L 254.38 340 L 252.5 340.63 L 253.13 331.25 L 254.38 336.25 L 255.63 332.5 Q 257.19 335.31 258.75 331.88 L 260 319.38 Q 256.87 317.5 261.25 315.63 L 260 311.88 L 260 309.38 L 262.5 296.88 L 262.5 286.88 L 260 288.13 L 260.63 290 Q 257.81 289.06 258.75 291.88 L 260 294.38 L 257.5 298.13 L 260 298.75 Q 261.41 302.08 258.13 301.25 L 258.75 303.13 L 258.75 305 L 256.25 305.63 L 256.25 315.63 L 255 320.63 L 256.25 323.13 L 254.38 327.5 L 253.75 313.13 L 260 276.88 L 260 266.88 L 270 221.88 L 270 214.38 Q 267.06 212.69 269.38 207.5 Z M 272 211 L 270 213 L 272 214 L 271 216 L 272 223 L 273 218 L 276 225 L 278 218 L 276 214 L 272 211 Z M 271 223 L 270 227 L 271 227 L 271 223 Z M 271 229 L 269 234 L 271 233 L 271 229 Z M 299 235 L 299 240 Q 303 242 303 238 L 301 239 L 299 235 Z M 269 236 L 268 244 L 268 250 L 270 247 L 269 236 Z M 274 255 L 274 258 L 276 257 Q 277 254 274 255 Z M 279 258 L 278 259 Q 278 262 276 261 L 278 265 L 280 259 L 279 258 Z M 273 259 Q 271 262 274 261 L 273 259 Z M 267 264 L 263 269 L 264 272 L 263 277 L 263 279 Q 260 287 265 285 Q 264 278 268 276 L 269 276 L 271 267 L 269 268 L 267 264 Z M 296 270 Q 293 273 297 273 L 296 270 Z M 293 279 Q 291 284 295 283 L 293 279 Z M 293 284 L 291 286 L 294 286 L 293 284 Z M 288 289 L 288 292 L 289 292 L 288 289 Z M 289 305 L 289 308 L 290 308 L 289 305 Z M 284 323 L 284 324 L 286 323 L 284 323 Z M 261 339 L 262 348 L 265 346 L 265 341 L 263 341 L 264 339 L 261 339 Z M 263 348 L 261 349 Q 263 355 260 357 L 261 360 L 264 359 L 265 356 L 263 354 L 265 354 L 265 348 L 263 348 Z M 260 365 L 260 367 Q 257 368 261 370 L 263 366 L 260 365 Z M 259 374 L 260 379 Q 266 381 264 375 L 259 374 Z M 260 380 L 261 388 L 262 385 L 263 387 L 264 387 Q 267 378 260 380 Z M 247 383 L 246 387 L 248 387 L 247 383 Z M 261 389 L 260 392 L 261 392 L 261 389 Z M 282 411 L 284 413 Q 285 410 282 411 Z M 248 413 L 248 414 Q 249 418 251 414 L 248 413 Z " style="fill: rgba(172, 208, 232, 1); stroke: rgba(172, 208, 232, 1);"/><path d="M 300.63 210 L 301.25 213.13 L 300 213.13 L 300.63 210 Z " style="fill: rgba(172, 208, 232, 1); stroke: rgba(172, 208, 232, 1);"/><path d="M 310.63 215 L 315 215.63 L 310.63 216.25 L 310.63 215 Z " style="fill: rgba(172, 208, 232, 1); stroke: rgba(172, 208, 232, 1);"/><path d="M 291.88 218.75 L 295 219.38 L 291.88 220 L 291.88 218.75 Z " style="fill: rgba(172, 208, 232, 1); stroke: rgba(172, 208, 232, 1);"/><path d="M 284.38 220 L 287.5 220.63 L 284.38 221.25 L 284.38 220 Z " style="fill: rgba(172, 208, 232, 1); stroke: rgba(172, 208, 232, 1);"/><path d="M 353.75 251.25 L 356.25 251.88 L 353.75 253.13 L 353.75 251.25 Z " style="fill: rgba(172, 208, 232, 1); stroke: rgba(172, 208, 232, 1);"/><path d="M 321.88 263.75 L 322.5 265.63 L 320 266.88 L 321.88 263.75 Z " style="fill: rgba(172, 208, 232, 1); stroke: rgba(172, 208, 232, 1);"/><path d="M 319.38 272.5 L 318.13 275 L 319.38 272.5 Z " style="fill: rgba(172, 208, 232, 1); stroke: rgba(172, 208, 232, 1);"/><path d="M 313.13 280 L 316.25 280.63 L 314.38 286.25 L 313.13 280 Z " style="fill: rgba(172, 208, 232, 1); stroke: rgba(172, 208, 232, 1);"/><path d="M 409.38 291.25 L 410 293.13 L 408.13 296.25 L 407.5 294.38 L 409.38 291.25 Z " style="fill: rgba(172, 208, 232, 1); stroke: rgba(172, 208, 232, 1);"/><path d="M 324.38 298.75 L 325.63 301.25 L 324.38 298.75 Z " style="fill: rgba(172, 208, 232, 1); stroke: rgba(172, 208, 232, 1);"/><path d="M 319.38 306.25 L 321.25 306.88 L 320.63 310 L 317.5 310 L 317.5 312.5 Q 314.17 311.09 315 314.38 L 311.25 316.25 L 310.63 318.75 L 310 316.88 L 311.25 313.75 L 313.75 313.75 Q 312.5 310 316.25 311.25 L 316.25 307.5 L 318.13 307.5 L 319.38 306.25 Z " style="fill: rgba(172, 208, 232, 1); stroke: rgba(172, 208, 232, 1);"/><path d="M 391.88 306.25 L 391.25 308.13 L 390.63 310 L 389.38 307.5 L 391.88 306.25 Z " style="fill: rgba(172, 208, 232, 1); stroke: rgba(172, 208, 232, 1);"/><path d="M 400.63 310 L 399.38 312.5 L 400.63 310 Z " style="fill: rgba(172, 208, 232, 1); stroke: rgba(172, 208, 232, 1);"/><path d="M 319.38 316.25 L 321.25 320 L 312.5 322.5 L 308.75 328.13 L 309.38 330 L 307.5 329.38 L 302.5 335.63 L 305 340.63 L 308.13 347.5 L 312.5 350.63 L 315.63 355 L 320 356.88 L 313.13 365 L 310.63 366.25 L 303.75 360.63 L 302.5 354.38 L 303.75 351.25 Q 307.08 352.66 306.25 349.38 L 307.5 348.13 L 302.5 343.13 Q 298.75 340.63 300 333.13 L 302.5 333.13 L 304.38 328.75 Q 305.94 331.56 307.5 328.13 Q 306.88 321.87 311.88 321.25 L 316.25 320 Q 314.84 316.67 318.13 317.5 L 319.38 316.25 Z " style="fill: rgba(172, 208, 232, 1); stroke: rgba(172, 208, 232, 1);"/><path d="M 366.88 333.75 L 365.63 336.25 L 366.88 333.75 Z " style="fill: rgba(172, 208, 232, 1); stroke: rgba(172, 208, 232, 1);"/><path d="M 370.63 333.75 L 370 335.63 Q 370.94 338.44 368.13 337.5 L 364.38 340 L 365.63 337.5 L 370.63 333.75 Z " style="fill: rgba(172, 208, 232, 1); stroke: rgba(172, 208, 232, 1);"/><path d="M 358.13 338.75 L 356.88 341.25 L 358.13 338.75 Z " style="fill: rgba(172, 208, 232, 1); stroke: rgba(172, 208, 232, 1);"/><path d="M 253.13 342.5 Q 256.88 344.38 253.13 346.25 L 253.13 342.5 Z " style="fill: rgba(172, 208, 232, 1); stroke: rgba(172, 208, 232, 1);"/><path d="M 356.88 342.5 L 355.63 345 L 353.75 344.38 L 356.88 342.5 Z " style="fill: rgba(172, 208, 232, 1); stroke: rgba(172, 208, 232, 1);"/><path d="M 360.63 350 L 361.25 355 L 363.75 355 Q 362.34 351.67 365.63 352.5 L 365 354.38 L 361.88 360 L 360.63 350 Z " style="fill: rgba(172, 208, 232, 1); stroke: rgba(172, 208, 232, 1);"/><path d="M 281.88 357.5 L 283.75 360.63 L 283.75 363.13 L 282.5 374.38 L 283.75 374.38 L 284.38 371.25 L 285 375.63 L 283.75 381.88 L 286.25 385.63 L 286.25 390.63 L 287.5 393.13 L 278.75 385.63 L 278.75 373.13 L 281.88 357.5 Z M 281 373 L 280 376 L 281 376 L 281 373 Z M 280 381 L 283 388 L 284 388 L 283 384 Q 284 380 280 381 Z " style="fill: rgba(172, 208, 232, 1); stroke: rgba(172, 208, 232, 1);"/><path d="M 344.38 363.75 L 347.5 364.38 L 344.38 365 L 344.38 363.75 Z " style="fill: rgba(172, 208, 232, 1); stroke: rgba(172, 208, 232, 1);"/><path d="M 290.63 370 Q 294.84 368.88 292.5 375.63 L 296.25 386.88 L 295 386.88 L 290.63 375 L 288.75 375.63 L 291.25 371.88 L 290.63 370 Z " style="fill: rgba(172, 208, 232, 1); stroke: rgba(172, 208, 232, 1);"/><path d="M 351.88 371.25 L 351.25 373.13 L 350.63 376.25 L 350 373.13 L 351.88 371.25 Z " style="fill: rgba(172, 208, 232, 1); stroke: rgba(172, 208, 232, 1);"/><path d="M 279.38 392.5 L 281.25 399.38 L 280 399.38 L 279.38 392.5 Z " style="fill: rgba(172, 208, 232, 1); stroke: rgba(172, 208, 232, 1);"/><path d="M 240.63 393.75 L 245 395.63 L 243.13 396.25 L 240.63 393.75 Z " style="fill: rgba(172, 208, 232, 1); stroke: rgba(172, 208, 232, 1);"/><path d="M 310.63 393.75 L 311.88 396.25 L 310.63 393.75 Z " style="fill: rgba(172, 208, 232, 1); stroke: rgba(172, 208, 232, 1);"/><path d="M 288.13 395 L 290 399.38 L 287.5 398.13 L 288.13 395 Z " style="fill: rgba(172, 208, 232, 1); stroke: rgba(172, 208, 232, 1);"/><path d="M 240.63 396.25 L 243.75 397.5 Q 245.16 400.83 241.88 400 L 238.75 399.38 L 240.63 396.25 Z " style="fill: rgba(172, 208, 232, 1); stroke: rgba(172, 208, 232, 1);"/><path d="M 306.88 398.75 L 305.63 401.25 L 303.75 400.63 L 306.88 398.75 Z " style="fill: rgba(172, 208, 232, 1); stroke: rgba(172, 208, 232, 1);"/><path d="M 323.13 398.75 L 324.38 401.25 L 323.13 398.75 Z " style="fill: rgba(172, 208, 232, 1); stroke: rgba(172, 208, 232, 1);"/><path d="M 350.63 400 Q 353.44 399.06 352.5 401.88 L 356.88 401.25 L 359.38 403.75 L 360.63 402.5 L 368.75 406.25 L 368.75 408.75 Q 372.08 407.34 371.25 410.63 L 371.88 415 L 369.38 416.25 Q 367.81 413.44 361.88 415 Q 359.56 410.44 353.13 410 L 349.38 411.25 L 343.13 411.25 L 335.63 415 L 335.63 413.75 Q 339.84 414.88 337.5 408.13 L 350.63 400 Z M 363 409 Q 364 412 361 411 L 362 414 L 365 413 L 363 409 Z M 367 409 L 365 411 L 367 414 L 369 413 L 367 409 Z " style="fill: rgba(172, 208, 232, 1); stroke: rgba(172, 208, 232, 1);"/><path d="M 284.38 401.25 L 288.75 404.38 L 286.88 405 L 284.38 401.25 Z " style="fill: rgba(172, 208, 232, 1); stroke: rgba(172, 208, 232, 1);"/><path d="M 238.13 405 L 241.25 406.88 L 239.38 407.5 L 238.13 405 Z " style="fill: rgba(172, 208, 232, 1); stroke: rgba(172, 208, 232, 1);"/><path d="M 281.88 405 L 283.13 407.5 Q 279.64 408.33 281.88 405 Z " style="fill: rgba(172, 208, 232, 1); stroke: rgba(172, 208, 232, 1);"/><path d="M 235.63 410 L 238.75 411.88 L 238.13 413.75 L 237.5 411.25 L 235.63 410 Z " style="fill: rgba(172, 208, 232, 1); stroke: rgba(172, 208, 232, 1);"/><path d="M 311.88 411.25 L 314.38 412.5 L 316.88 411.25 L 316.88 412.5 L 311.25 414.38 L 313.75 415.63 L 309.38 416.25 L 310 414.38 L 311.88 411.25 Z " style="fill: rgba(172, 208, 232, 1); stroke: rgba(172, 208, 232, 1);"/><path d="M 283.13 420 L 287.5 420.63 L 283.13 421.25 L 283.13 420 Z " style="fill: rgba(172, 208, 232, 1); stroke: rgba(172, 208, 232, 1);"/><path d="M 375.63 422.5 L 376.88 425 L 373.75 424.38 L 375.63 422.5 Z " style="fill: rgba(172, 208, 232, 1); stroke: rgba(172, 208, 232, 1);"/><path d="M 274.38 0 L 280.63 1.25 L 281.88 0 L 640 0 L 639.38 7.5 L 631.25 3.75 L 630.63 1.25 L 627.5 3.13 L 630 4.38 L 628.13 7.5 Q 631.87 6.56 630 11.25 L 633.13 11.25 L 633.13 13.75 L 639.38 11.25 L 639.38 12.5 L 637.5 13.13 L 640 13.75 L 640 244.38 L 638.13 246.25 L 634.38 246.25 L 627.5 250 L 626.25 255 Q 621.56 256.87 622.5 253.13 L 621.25 253.13 L 620.63 255 L 619.38 252.5 L 610 275 L 603.13 272.5 L 602.5 277.5 L 598.75 279.38 L 597.5 286.25 L 592.5 287.5 Q 594.37 292.19 590.63 291.25 Q 588.2 286.7 582.5 287.5 Q 583.75 282.73 580.63 281.25 Q 577.34 280.42 578.75 283.75 L 576.25 283.75 L 576.25 286.25 L 570.63 286.25 L 565 287.5 Q 566.41 290.83 563.13 290 L 560 288.75 Q 561.41 285.42 558.13 286.25 L 556.25 290 L 552.5 290 L 552.5 282.5 L 545 282.5 L 543.75 285.63 L 545 286.88 L 545 295 Q 540.73 294.06 539.38 297.5 L 533.75 296.25 Q 535 292.5 531.25 293.75 L 531.25 290.63 L 530 287.5 Q 534.69 289.38 533.75 285.63 L 535 281.25 L 524.38 280 L 520 275.63 L 511.25 255 Q 507.08 253.36 508.75 259.38 L 507.5 262.5 L 503.75 264.38 L 503.75 271.25 L 500.63 271.25 Q 499.06 268.44 493.13 270 L 491.25 268.13 L 488.75 260.63 L 490 257.5 L 493.13 258.75 L 493.75 255.63 Q 491.56 257.6 489.38 253.75 Q 485.21 255.16 486.25 251.88 L 482.5 242.5 L 480 242.5 Q 481.87 237.81 478.13 238.75 Q 475.52 233.93 468.75 235 Q 470.16 231.67 466.88 232.5 L 463.75 229.38 L 461.25 210.63 L 457.5 195.63 L 453.75 190.63 L 452.5 182.5 Q 446.19 184.06 444.38 180 L 443.75 182.5 L 437.5 179.38 L 438.75 170.63 L 437.5 167.5 Q 434.17 168.91 435 165.63 L 428.13 162.5 L 423.75 165 L 423.13 162.5 L 420.63 163.75 Q 412.84 157.99 411.25 147.5 Q 407.5 149.06 408.75 144.38 L 401.88 140 L 400.63 141.25 L 394.38 135 L 391.25 135 Q 392.66 131.67 389.38 132.5 L 383.75 122.5 L 378.75 119.38 L 376.25 109.38 Q 368.33 103.28 365 93.75 L 361.25 95.63 L 360.63 97.5 L 358.75 96.88 L 361.25 105.63 L 359.38 108.75 L 357.5 105.63 L 357.5 103.13 L 358.75 100.63 L 353.13 91.25 L 351.25 91.88 L 351.88 88.75 Q 357.63 88 359.38 91.25 L 362.5 89.38 Q 356.44 72.31 344.38 61.25 Q 342.19 64.69 340 59.38 L 335.63 52.5 L 333.75 53.13 L 335 50.63 L 331.88 43.75 L 331.25 48.13 L 332.5 51.88 L 331.25 51.88 L 331.25 48.75 Q 327.5 50.31 328.75 45.63 L 325 44.38 L 323.75 39.38 L 324.38 37.5 L 317.5 31.88 Q 318.91 27.71 315.63 28.75 L 298.75 13.13 L 295.63 8.75 L 293.13 8.75 L 280.63 2.5 L 274.38 1.25 L 274.38 0 Z M 326 39 Q 323 42 327 41 L 326 39 Z M 331 41 L 329 44 L 331 43 L 331 41 Z " style="fill: rgba(230, 182, 187, 1); stroke: rgba(230, 182, 187, 1);"/><path d="M 334.38 56.25 Q 340 58.75 335.63 61.25 L 335.63 58.75 Q 332.14 59.58 334.38 56.25 Z " style="fill: rgba(230, 182, 187, 1); stroke: rgba(230, 182, 187, 1);"/><path d="M 334.38 62.5 L 335.63 65 L 334.38 62.5 Z " style="fill: rgba(230, 182, 187, 1); stroke: rgba(230, 182, 187, 1);"/><path d="M 259.38 66.25 L 260 68.75 L 256.88 70 L 255.63 67.5 Q 257.5 70.62 259.38 66.25 Z " style="fill: rgba(230, 182, 187, 1); stroke: rgba(230, 182, 187, 1);"/><path d="M 270.63 67.5 Q 274.06 66.77 272.5 74.38 Q 271.56 77.19 266.88 76.25 L 266.25 73.13 L 270.63 67.5 Z " style="fill: rgba(230, 182, 187, 1); stroke: rgba(230, 182, 187, 1);"/><path d="M 253.13 68.75 L 251.88 71.25 L 248.75 70.63 L 253.13 68.75 Z " style="fill: rgba(230, 182, 187, 1); stroke: rgba(230, 182, 187, 1);"/><path d="M 245.63 70 L 246.25 72.5 L 243.13 73.75 L 245.63 70 Z " style="fill: rgba(230, 182, 187, 1); stroke: rgba(230, 182, 187, 1);"/><path d="M 351.88 83.75 L 350.63 86.25 L 351.88 83.75 Z " style="fill: rgba(230, 182, 187, 1); stroke: rgba(230, 182, 187, 1);"/><path d="M 241.88 88.75 L 242.5 92.5 L 248.75 95.63 L 246.25 96.88 L 248.75 101.88 L 246.88 102.5 L 243.75 101.88 L 245 98.13 L 242.5 97.5 L 241.88 88.75 Z " style="fill: rgba(230, 182, 187, 1); stroke: rgba(230, 182, 187, 1);"/><path d="M 359.38 110 L 361.25 113.75 L 363.75 113.75 Q 362.34 117.08 365.63 116.25 L 371.25 118.75 L 373.75 125 L 377.5 126.88 Q 376.56 131.56 379.38 132.5 L 381.88 131.25 L 383.75 134.38 L 380 135.63 L 385 144.38 L 385 146.88 L 386.88 150 L 387.5 148.13 L 386.25 145.63 L 388.75 146.88 L 387.5 151.88 L 390 151.88 L 388.75 154.38 L 391.25 154.38 L 390 156.88 L 396.25 161.88 Q 397.19 166.56 394.38 167.5 L 395 163.13 L 394.38 161.25 Q 392.81 164.06 391.25 160.63 Q 382.71 149.79 378.75 134.38 L 360 113.13 L 359.38 110 Z " style="fill: rgba(230, 182, 187, 1); stroke: rgba(230, 182, 187, 1);"/><path d="M 379.38 127.5 L 382.5 129.38 L 380.63 130 L 379.38 127.5 Z " style="fill: rgba(230, 182, 187, 1); stroke: rgba(230, 182, 187, 1);"/><path d="M 395 170 L 397.5 170.63 L 395.63 175 L 395 170 Z " style="fill: rgba(230, 182, 187, 1); stroke: rgba(230, 182, 187, 1);"/><path d="M 395 176.25 L 397.5 176.88 L 395.63 180 L 395 176.25 Z " style="fill: rgba(230, 182, 187, 1); stroke: rgba(230, 182, 187, 1);"/><path d="M 396.88 185 L 398.75 194.38 L 397.5 194.38 L 396.88 185 Z " style="fill: rgba(230, 182, 187, 1); stroke: rgba(230, 182, 187, 1);"/><path d="M 401.88 206.25 L 403.75 214.38 L 401.88 218.75 L 401.25 215.63 L 402.5 213.13 Q 399.56 211.44 401.88 206.25 Z " style="fill: rgba(230, 182, 187, 1); stroke: rgba(230, 182, 187, 1);"/><path d="M 430.63 223.75 L 431.88 226.25 L 430.63 223.75 Z " style="fill: rgba(230, 182, 187, 1); stroke: rgba(230, 182, 187, 1);"/><path d="M 425.63 228.75 L 428.75 230.63 L 426.88 231.25 L 425.63 228.75 Z " style="fill: rgba(230, 182, 187, 1); stroke: rgba(230, 182, 187, 1);"/><path d="M 435.63 235 L 436.25 238.13 L 435 238.13 L 435.63 235 Z " style="fill: rgba(230, 182, 187, 1); stroke: rgba(230, 182, 187, 1);"/><path d="M 413.13 243.75 L 413.75 246.88 L 412.5 246.88 L 413.13 243.75 Z " style="fill: rgba(230, 182, 187, 1); stroke: rgba(230, 182, 187, 1);"/><path d="M 404.38 315 L 403.13 317.5 L 404.38 315 Z " style="fill: rgba(230, 182, 187, 1); stroke: rgba(230, 182, 187, 1);"/><path d="M 299.38 353.75 L 302.5 355 L 303.75 359.38 L 301.25 359.38 L 302.5 365.63 L 300 366.88 L 300 364.38 L 299.38 362.5 L 293.75 366.88 L 293.13 368.75 L 292.5 363.13 L 296.88 355 L 299.38 353.75 Z " style="fill: rgba(230, 182, 187, 1); stroke: rgba(230, 182, 187, 1);"/><path d="M 304.38 361.25 Q 309.69 363.44 306.25 365.63 L 307.5 370.63 L 302.5 371.25 Q 301.56 365.94 306.25 364.38 L 304.38 361.25 Z " style="fill: rgba(230, 182, 187, 1); stroke: rgba(230, 182, 187, 1);"/><path d="M 298.75 368.75 Q 302.08 367.34 301.25 370.63 L 295.63 377.5 L 295 375.63 L 297.5 371.88 L 296.88 370 L 298.75 370.63 L 298.75 368.75 Z " style="fill: rgba(230, 182, 187, 1); stroke: rgba(230, 182, 187, 1);"/><path d="M 359.38 368.75 L 362.5 373.13 L 361.25 373.13 L 359.38 368.75 Z " style="fill: rgba(230, 182, 187, 1); stroke: rgba(230, 182, 187, 1);"/><path d="M 361.88 375 L 362.5 378.13 L 361.25 378.13 L 361.88 375 Z " style="fill: rgba(230, 182, 187, 1); stroke: rgba(230, 182, 187, 1);"/><path d="M 355.63 398.75 Q 359.38 400.63 355.63 402.5 L 355.63 398.75 Z " style="fill: rgba(230, 182, 187, 1); stroke: rgba(230, 182, 187, 1);"/><path d="M 364.38 407.5 L 363.75 409.38 L 364.38 412.5 L 366.88 408.75 L 370.63 415 L 372.5 414.38 L 371.88 412.5 L 377.5 423.13 Q 375.31 421.15 373.13 425 L 339.38 425 L 338.75 420.63 L 336.25 421.88 Q 337.81 426.56 333.13 425 L 335 421.88 L 333.75 420.63 L 338.13 413.75 L 350.63 410 L 353.13 410 L 359.38 412.5 L 362.5 411.25 L 364.38 407.5 Z M 366 413 L 362 414 L 362 415 L 369 414 L 366 413 Z " style="fill: rgba(230, 182, 187, 1); stroke: rgba(230, 182, 187, 1);"/><path d="M 0 0 L 266.25 0.63 Q 252.24 2.86 245 11.88 L 245.63 13.75 L 240 15 L 235.63 21.25 L 233.75 20.63 L 219.38 38.75 L 216.25 37.5 L 217.5 40.63 L 213.75 49.38 Q 217.19 51.56 211.88 53.75 L 210 54.38 L 210.63 56.25 L 206.25 59.38 L 207.5 61.88 L 207.5 64.38 L 206.25 70.63 L 210 79.38 L 210 84.38 L 218.13 93.75 L 230 104.38 L 228.75 106.88 L 230 113.13 L 230 115.63 L 226.25 125.63 L 226.25 135.63 L 225 136.88 L 226.25 138.13 L 228.13 158.75 L 229.38 156.25 L 230 158.13 L 228.75 161.88 Q 232.32 166.43 231.25 175.63 L 236.25 185.63 L 235.63 187.5 Q 238.44 186.56 237.5 189.38 L 243.75 199.38 L 242.5 201.88 L 245 201.88 L 242.5 206.88 L 245.63 215 L 247.5 214.38 L 245 221.88 L 246.25 221.88 L 246.88 220 L 247.5 221.88 L 246.25 224.38 L 253.75 235 Q 257.08 236.41 256.25 233.13 L 257.5 233.13 L 258.75 239.38 L 257.5 239.38 L 256.88 236.25 L 256.25 241.25 Q 260 239.69 258.75 244.38 L 256.25 244.38 L 258.75 250.63 L 260 276.88 L 258.75 276.88 L 258.13 270 L 256.25 284.38 L 257.5 284.38 L 258.13 278.75 L 258.75 285.63 L 256.88 295 L 255.63 290 L 255 296.88 L 256.25 301.88 L 255 301.88 L 254.38 298.75 L 253.75 303.13 Q 256.88 305 255 311.88 L 253.75 311.88 L 253.13 303.75 L 252.5 314.38 L 253.75 315.63 L 254.38 327.5 L 256.25 321.88 L 255 316.88 L 256.25 315.63 L 256.25 305 Q 259.58 306.41 258.75 303.13 L 258.13 301.25 Q 261.41 302.08 260 298.75 L 257.5 298.13 L 260 293.13 L 258.75 290 L 261.25 289.38 Q 258.44 287.81 261.88 286.25 L 262.5 296.88 L 260 309.38 L 260 311.88 L 261.25 315.63 Q 256.87 317.5 260 319.38 L 258.75 331.88 L 256.88 333.75 L 255 333.13 L 254.38 336.25 L 253.13 331.25 L 252.5 340.63 L 255 339.38 L 256.88 335 L 257.5 345.63 L 255.63 350 L 253.13 348.75 L 250.63 353.75 L 248.75 353.13 L 250 355.63 L 247.5 356.88 L 248.75 361.88 L 246.88 368.75 L 245.63 365 L 245 369.38 L 246.25 374.38 L 243.75 384.38 L 245 386.88 L 243.75 390.63 L 245.63 392.5 L 247.5 391.88 L 242.5 395.63 L 241.88 397.5 L 240 396.88 L 241.88 400 Q 244.69 400.94 243.75 398.13 L 246.25 398.13 L 245 395.63 L 248.13 395 L 250.63 396.25 L 252.5 395.63 L 251.25 399.38 L 252.5 402.5 L 250 401.88 Q 252.81 400.31 249.38 398.75 L 248.75 401.25 L 245.63 400 L 242.5 401.88 L 245.63 403.75 L 247.5 403.13 L 245.63 406.25 L 243.13 406.25 L 238.13 405 L 239.38 407.5 L 249.38 407.5 L 250 410 L 251.88 410 L 251.88 411.25 L 243.13 410 L 243.13 411.25 L 246.25 411.88 Q 241.09 415.89 242.5 425 L 0 425 L 0 0 Z M 252 320 L 251 323 L 253 323 L 252 320 Z M 251 339 L 250 349 L 251 349 L 251 339 Z M 253 343 L 253 346 Q 257 344 253 343 Z M 237 396 L 236 399 L 238 399 L 237 396 Z M 237 406 L 235 408 L 239 411 L 238 414 L 241 415 L 241 413 L 243 412 L 237 406 Z " style="fill: rgba(115, 189, 223, 1); stroke: rgba(115, 189, 223, 1);"/><path d="M 339.38 95 Q 342.81 96.56 340 98.13 L 339.38 100 L 337.5 99.38 L 336.88 102.5 Q 334.69 98.65 332.5 100.63 L 334.38 96.25 L 339.38 95 Z " style="fill: rgba(115, 189, 223, 1); stroke: rgba(115, 189, 223, 1);"/><path d="M 328.13 101.25 L 328.75 103.75 L 332.5 104.38 L 330 105.63 L 330.63 107.5 L 327.5 108.13 L 328.13 110 Q 323.44 108.75 325 112.5 L 329.38 113.75 L 329.38 111.25 Q 336.13 113.59 335 109.38 L 333.13 110 L 330 109.38 L 335.63 106.25 L 340.63 107.5 L 340.63 105 L 344.38 106.25 L 344.38 105 L 342.5 104.38 L 344.38 103.75 L 346.88 105 L 356.88 102.5 L 356.88 108.75 L 344.38 112.5 L 340 110 L 338.13 113.75 Q 336.56 110.94 335 114.38 L 340 115.63 L 333.75 116.25 L 333.13 113.75 Q 329.69 115.31 332.5 116.88 L 330.63 120 L 328.13 120 L 326.25 120.63 L 327.5 123.13 L 321.25 128.13 L 323.13 125 L 317.5 128.13 L 321.25 130.63 L 317.5 135.63 L 318.13 137.5 L 315.63 138.75 L 315 135.63 L 317.5 129.38 L 315.63 130 L 310 133.13 L 311.25 134.38 L 306.25 139.38 L 301.88 146.25 L 300 143.13 L 301.25 140.63 L 299.38 141.25 L 296.25 143.13 L 297.5 145.63 L 295.63 146.25 L 293.13 145 L 293.75 146.88 L 293.13 148.75 L 290.63 145 L 287.5 143.13 L 288.13 140 Q 289.69 142.81 291.25 139.38 L 293.75 133.75 L 298.75 131.88 L 297.5 130.63 L 302.5 125.63 L 306.25 118.75 L 311.25 115.63 Q 308.44 114.06 311.88 112.5 L 311.88 115 L 315 113.13 Q 314.06 110.31 316.88 111.25 L 328.13 101.25 Z M 326 105 L 324 108 L 328 106 L 326 105 Z M 343 109 L 343 110 L 348 109 L 343 109 Z M 324 113 L 319 117 L 321 118 L 319 119 L 323 120 L 323 118 L 324 115 L 327 116 L 324 113 Z M 318 121 L 316 123 L 319 124 L 318 121 Z M 314 126 L 311 129 L 311 130 L 316 129 L 314 126 Z M 343 126 L 344 131 Q 342 138 346 138 L 345 136 L 348 136 L 346 132 L 346 129 L 344 129 L 345 127 L 343 126 Z M 351 130 L 349 134 L 353 135 L 351 130 Z M 307 131 L 301 137 L 301 139 L 307 135 L 308 136 Q 312 135 309 133 Q 310 130 307 131 Z M 299 138 L 298 139 L 300 140 L 299 138 Z " style="fill: rgba(115, 189, 223, 1); stroke: rgba(115, 189, 223, 1);"/><path d="M 338.13 118.75 L 343.75 120.63 L 340 123.13 Q 341.41 118.96 338.13 120 L 338.13 118.75 Z " style="fill: rgba(115, 189, 223, 1); stroke: rgba(115, 189, 223, 1);"/><path d="M 346.88 120 L 349.38 126.25 L 350.63 123.75 L 353.75 125.63 L 350 126.88 L 353.75 128.13 L 351.25 129.38 Q 352.81 132.81 354.38 130 L 357.5 130.63 L 356.88 132.5 Q 360.16 131.67 358.75 135 L 351.25 136.88 L 353.75 138.13 L 351.88 138.75 L 348.13 136.25 L 346.25 139.38 L 348.13 140 L 349.38 138.75 L 355 141.88 L 348.75 143.75 L 348.13 141.25 L 346.25 141.88 Q 347.19 139.06 344.38 140 L 340.63 137.5 L 340 141.25 L 342.5 141.88 Q 335.63 141.25 333.75 145.63 L 331.25 151.88 L 330 175.63 L 328.13 177.5 L 325 166.88 L 326.25 161.25 L 323.75 160.63 L 326.25 160 Q 325.98 150.6 330.63 145 L 331.88 146.25 L 336.25 141.88 L 335.63 140 L 337.5 140.63 Q 338.54 137.34 334.38 138.75 L 334.38 137.5 L 339.38 135 Q 340.94 137.81 342.5 134.38 L 337.5 133.75 Q 336.09 130.42 339.38 131.25 L 341.25 131.88 Q 340.21 124.58 344.38 122.5 L 345.63 125 L 346.88 120 Z " style="fill: rgba(115, 189, 223, 1); stroke: rgba(115, 189, 223, 1);"/><path d="M 334.38 121.25 L 333.13 123.75 L 334.38 121.25 Z " style="fill: rgba(115, 189, 223, 1); stroke: rgba(115, 189, 223, 1);"/><path d="M 365.63 122.5 L 366.88 125 L 365.63 122.5 Z " style="fill: rgba(115, 189, 223, 1); stroke: rgba(115, 189, 223, 1);"/><path d="M 370.63 131.25 L 375 133.13 L 374.38 135 Q 377.19 134.06 376.25 136.88 L 370.63 131.25 Z " style="fill: rgba(115, 189, 223, 1); stroke: rgba(115, 189, 223, 1);"/><path d="M 356.88 136.25 L 360 136.88 L 356.88 137.5 L 356.88 136.25 Z " style="fill: rgba(115, 189, 223, 1); stroke: rgba(115, 189, 223, 1);"/><path d="M 314.38 140 L 313.13 142.5 L 314.38 140 Z " style="fill: rgba(115, 189, 223, 1); stroke: rgba(115, 189, 223, 1);"/><path d="M 283.13 141.25 L 286.25 141.88 L 280.63 143.75 L 280.63 142.5 L 283.13 141.25 Z " style="fill: rgba(115, 189, 223, 1); stroke: rgba(115, 189, 223, 1);"/><path d="M 278.13 143.75 L 281.25 145.63 L 277.5 146.25 Q 275.31 151.88 281.88 150 Q 283.75 154.37 285.63 151.25 L 288.13 150 L 287.5 151.88 L 286.25 156.25 L 289.38 157.5 L 290 152.5 L 294.38 151.25 L 296.88 151.25 Q 299.69 152.19 298.75 149.38 L 298.75 146.88 L 299.38 145 L 301.88 151.25 L 305 149.38 Q 301.56 150.73 302.5 155 L 295.63 160 L 293.13 160 L 294.38 155 L 296.25 154.38 Q 294.38 150.63 292.5 154.38 L 281.25 173.13 L 281.25 178.75 Q 274.25 176.02 276.25 183.13 L 277.5 186.25 L 272.5 186.88 L 275 187.5 Q 273.59 190.83 276.88 190 L 281.88 188.75 L 279.38 192.5 L 277.5 193.13 Q 284.69 197.19 295.63 197.5 L 298.13 200 L 300 199.38 L 297.5 203.13 L 300.63 201.25 L 301.88 202.5 L 305.63 203.75 L 309.38 201.25 L 318.75 203.75 Q 317.34 207.08 320.63 206.25 L 320 208.13 L 318.13 213.75 L 316.88 211.25 L 314.38 215 L 301.25 213.75 L 300.63 210 L 298.75 214.38 L 307.5 217.5 L 308.13 215 L 309.38 217.5 L 313.13 216.25 L 314.38 217.5 L 317.5 215.63 L 315.63 218.75 L 301.88 218.75 L 300 220.63 L 304.38 222.5 L 306.25 221.88 L 306.88 226.25 L 308.13 223.75 L 309.38 226.25 L 310 223.75 L 313.75 223.75 Q 311.87 228.44 315.63 227.5 L 315 225.63 L 318.13 220 Q 321.41 221.04 320 216.88 L 323.75 219.38 L 322.5 226.88 L 320 229.38 L 323.75 230 L 324.38 227.5 L 327.5 238.13 L 327.5 245.63 L 330 249.38 Q 330.68 261.82 335 270.63 L 335 276.88 L 330 283.13 L 332.5 283.75 Q 330.94 280 335.63 281.25 L 337.5 280.63 L 338.75 284.38 L 335 286.25 L 332.5 295.63 L 317.5 315.63 L 318.13 317.5 L 314.38 320 L 308.75 324.38 Q 310.63 328.13 312.5 324.38 Q 311.56 321.56 314.38 322.5 L 321.25 320 L 321.88 317.5 L 324.38 318.75 L 328.13 316.25 L 330 320 L 335 320 L 335 318.13 L 336.88 318.75 L 340.63 321.25 L 340.63 322.5 L 325.63 321.25 L 325.63 322.5 L 331.25 323.75 L 332.5 331.88 Q 330.31 329.9 328.13 333.75 Q 323.44 335 325 331.25 L 321.25 331.25 L 321.88 333.75 L 323.75 333.13 L 321.25 336.88 L 322.5 340.63 L 319.38 343.75 L 315.63 342.5 L 313.75 343.13 L 318.13 348.75 L 321.25 350.63 L 321.25 352.5 Q 325.94 350.62 325 354.38 Q 322.81 352.4 320.63 356.25 Q 314.69 355.94 312.5 351.88 L 311.25 349.38 L 312.5 345.63 Q 307.94 343.31 307.5 336.88 L 311.88 340 L 314.38 341.25 L 315 338.13 L 315 335.63 Q 316.25 326.88 322.5 323.13 L 319.38 321.25 L 316.25 322.5 Q 317.81 326.25 313.13 325 L 309.38 330 L 312.5 331.88 L 305 335 L 303.75 338.13 L 304.38 340 L 302.5 335.63 L 300 330.63 L 302.5 326.88 L 295 323.75 L 296.25 331.88 L 293.13 338.75 L 291.25 339.38 Q 294.37 341.25 290 343.13 L 285 368.13 L 287.5 368.75 Q 285.75 360.35 290 356.88 L 288.75 354.38 L 290 354.38 L 290.63 356.25 L 296.88 337.5 L 298.13 340 L 298.75 334.38 L 297.5 330.63 L 298.75 330.63 L 300 339.38 L 302.5 341.88 L 300.63 341.25 Q 297.34 340.21 298.75 344.38 L 291.25 358.13 L 291.25 363.13 L 292.5 365.63 L 290 370.63 L 291.25 373.13 L 291.25 375.63 L 296.88 390 L 298.75 389.38 L 298.75 391.88 L 298.75 395 Q 295 393.75 296.25 397.5 L 301.25 398.13 L 296.88 398.75 Q 295.31 395.94 293.75 399.38 L 298.13 401.25 L 303.13 398.75 Q 305.94 399.69 305 396.88 L 302.5 396.88 L 311.88 388.75 L 316.25 387.5 Q 314.84 384.17 318.13 385 L 321.25 381.88 L 321.25 379.38 Q 320.31 376.56 323.13 377.5 L 326.88 375 L 326.88 376.25 Q 324.06 375.31 325 378.13 L 326.25 381.25 L 331.25 382.5 L 331.88 380 L 332.5 388.75 L 328.75 389.38 L 330 393.75 L 333.75 394.38 L 330.63 396.25 L 328.75 395.63 L 328.75 397.5 L 333.75 397.5 L 333.75 400.63 L 335 404.38 L 335 406.88 L 335.63 408.75 L 338.13 405 L 337.5 406.88 Q 337.19 412.81 333.13 415 Q 325.21 413.96 321.88 417.5 L 315.63 416.25 L 315.63 417.5 L 320 418.13 L 313.75 419.38 L 322.5 420.63 L 312.5 421.25 L 311.88 418.75 Q 309.69 422.19 301.88 420 L 298.13 422.5 L 295.63 422.5 L 293.13 421.25 L 290.63 422.5 L 287.5 421.88 Q 288.12 418.12 279.38 420 L 276.25 421.25 Q 277.81 417.5 273.13 418.75 L 268.13 420 L 263.13 417.5 L 260.63 418.75 L 261.88 416.25 L 272.5 415.63 L 268.13 413.75 L 266.25 414.38 Q 264.84 410.21 268.13 411.25 L 284.38 417.5 L 286.88 417.5 L 294.38 416.25 L 296.88 417.5 L 296.88 415 L 307.5 413.13 L 303.75 411.88 L 306.88 411.25 L 309.38 411.25 L 311.25 411.88 L 307.5 414.38 Q 308.44 417.19 313.13 416.25 L 313.13 415 L 311.25 414.38 L 315 413.13 L 312.5 411.88 L 315 410.63 L 312.5 410 Q 310.42 404.84 315.63 406.25 L 318.75 404.38 Q 316.56 400.31 308.13 402.5 L 308.13 405 Q 305.94 400.31 296.88 402.5 L 296.88 403.75 L 302.5 405.63 L 296.25 408.13 L 300 408.75 Q 301.56 412.5 296.88 411.25 L 296.88 412.5 L 300 413.13 L 293.13 415 L 290.63 413.75 L 287.5 415.63 Q 288.44 412.81 285.63 413.75 L 285.63 412.5 L 287.5 411.88 L 283.75 411.25 L 283.13 413.75 L 281.88 411.25 L 283.75 410.63 L 278.75 406.88 Q 282.19 404.69 276.88 402.5 L 274.38 401.25 L 271.88 401.25 Q 267.71 399.84 268.75 403.13 Q 273.13 405 270 406.88 L 268.13 410 L 264.38 407.5 L 263.13 405 L 267.5 406.25 L 268.13 408.75 L 268.75 403.75 L 265.63 405 L 260 400.63 L 262.5 395.63 L 261.88 393.75 Q 267.34 391.88 266.25 395.63 L 268.13 398.75 L 268.75 395.63 L 268.13 393.75 L 270.63 396.25 L 271.88 395 L 275 396.88 L 273.75 394.38 L 276.25 395.63 L 276.88 398.75 L 277.5 393.13 L 276.25 390 L 273.75 390.63 L 274.38 392.5 L 272.5 390.63 Q 274.38 383.75 271.25 381.88 L 273.75 381.25 L 275.63 385 L 276.25 378.13 L 273.75 375.63 Q 278.12 373.75 275 371.88 L 275.63 366.25 L 277.5 366.88 L 276.25 362.5 L 278.75 361.88 L 277.5 356.25 Q 280.83 357.66 280 354.38 L 283.75 355.63 L 285 350.63 L 283.75 348.13 L 286.25 338.13 L 285 335.63 L 286.25 333.13 Q 283.12 331.25 287.5 329.38 L 291.25 313.75 Q 295.42 315.39 293.75 309.38 L 295 306.25 L 292.5 305.63 L 296.25 299.38 L 292.5 298.75 L 289.38 308.75 L 288.75 305.63 L 290 301.25 L 287.5 300.63 L 289.38 300 L 291.25 300.63 L 290 294.38 L 292.5 293.13 L 290.63 290 Q 294.79 291.41 293.75 288.13 L 296.25 279.38 L 293.75 274.38 L 295.63 275 Q 300.83 276.64 298.75 270.63 L 298.13 268.75 L 300 269.38 Q 301.04 266.09 296.88 267.5 Q 295.31 264.69 293.75 268.13 Q 295.16 272.29 291.88 271.25 L 286.88 268.75 L 284.38 268.75 L 282.5 269.38 L 283.13 271.25 Q 280.31 272.19 281.25 269.38 L 276.88 263.75 L 275 264.38 Q 277.81 262.81 274.38 261.25 Q 271.56 262.19 272.5 259.38 L 273.75 255 Q 277.08 253.59 276.25 256.88 Q 271.56 259.06 275.63 261.25 Q 278.44 262.19 277.5 259.38 L 280 258.13 L 278.75 264.38 L 283.13 267.5 L 285.63 263.75 L 288.13 265 L 290 261.88 L 288.75 256.25 Q 292.08 257.66 291.25 254.38 L 293.75 254.38 L 295.63 250 Q 299.37 251.09 297.5 245.63 L 300.63 241.25 L 301.25 244.38 L 300 249.38 L 305 259.38 L 302.5 258.13 L 300.63 255 L 297.5 259.38 L 300.63 261.25 Q 302.19 258.44 303.75 261.88 L 301.88 265 Q 299.06 264.06 300 266.88 L 302.5 266.88 L 293.75 297.5 L 297.5 295.63 L 296.25 291.88 L 300 290 L 298.75 285.63 L 301.25 280.63 L 303.75 276.88 L 302.5 274.38 L 306.25 269.38 L 303.75 268.13 L 306.25 266.88 L 305 264.38 L 316.25 231.25 L 313.75 231.25 Q 315.16 234.58 311.88 233.75 L 312.5 235.63 Q 313.44 238.44 310.63 237.5 L 308.13 232.5 L 307.5 236.88 L 311.25 238.75 Q 312.66 242.08 309.38 241.25 L 308.75 244.38 L 307.5 252.5 L 303.75 250.63 L 302.5 248.13 L 305 247.5 L 305.63 250 L 307.5 238.13 L 305 238.13 L 304.38 233.75 L 302.5 240 Q 296.88 242.19 298.75 235.63 Q 301.88 233.75 300 226.88 L 296.88 225 L 293.13 226.25 L 293.13 225 Q 296.41 225.83 295 222.5 Q 289.69 221.25 288.13 225 L 278.75 220 L 280 216.88 L 279.38 215 L 281.88 216.25 L 282.5 213.75 L 279.38 212.5 L 276.25 213.75 L 277.5 218.13 L 275.63 225 L 273.13 217.5 L 270.63 227.5 L 268.75 221.88 L 271.25 221.88 Q 269.69 215.94 272.5 214.38 L 270.63 213.75 L 268.75 214.38 L 273.75 211.25 Q 275.16 207.92 271.88 208.75 L 270 209.38 Q 270.94 206.56 268.13 207.5 L 268.75 205.63 L 270 201.25 Q 266.67 202.66 267.5 199.38 L 266.25 196.88 Q 270.63 195 267.5 193.13 L 270 181.25 L 276.25 178.13 L 273.13 177.5 L 271.25 178.13 L 273.75 169.38 L 273.75 161.88 L 276.25 156.25 L 280 155.63 L 276.25 155 Q 274.61 147.29 278.13 143.75 Z M 280 163 L 280 166 L 283 164 Q 283 161 280 163 Z M 271 185 L 269 191 L 273 191 L 275 192 Q 276 188 271 190 L 271 185 Z M 273 194 Q 270 195 273 197 L 268 198 L 268 199 Q 271 198 270 201 L 272 200 Q 278 202 276 198 L 279 199 L 280 195 L 273 194 Z M 283 196 Q 284 200 281 199 L 278 199 L 278 201 L 278 203 Q 277 206 280 205 L 280 208 L 283 209 L 286 204 L 285 202 L 291 198 L 283 196 Z M 292 199 L 293 201 Q 288 201 289 207 L 287 206 L 281 211 Q 282 208 279 209 L 280 211 Q 279 213 282 213 L 284 218 L 292 214 L 294 214 L 291 216 L 294 216 L 296 217 L 295 214 Q 294 209 299 211 L 298 208 Q 298 205 295 206 L 296 209 L 294 209 L 294 212 L 293 212 Q 290 202 296 199 L 292 199 Z M 276 203 L 275 204 L 271 206 Q 270 208 273 208 Q 275 210 276 207 L 276 203 Z M 311 210 L 312 211 L 314 212 Q 315 209 311 210 Z M 292 218 L 291 220 L 294 221 L 299 221 L 292 218 Z M 284 220 L 284 221 L 288 221 L 284 220 Z M 313 228 L 313 231 L 314 231 L 313 228 Z M 321 231 L 320 234 L 321 234 L 321 231 Z M 301 235 L 301 239 Q 304 237 301 235 Z M 297 264 L 297 265 L 300 264 L 297 264 Z M 291 268 L 293 269 Q 293 267 291 268 Z M 313 280 L 314 286 L 315 286 Q 316 281 313 280 Z M 319 306 L 318 308 L 316 308 L 316 311 Q 313 310 314 314 L 311 314 L 311 316 L 315 314 Q 314 311 318 313 L 318 310 L 321 310 L 321 307 L 319 306 Z M 307 325 L 308 328 L 310 327 L 307 325 Z M 307 329 L 305 331 L 308 331 L 307 329 Z M 303 330 Q 301 335 305 334 L 303 330 Z M 337 351 L 333 354 L 332 356 L 339 352 L 337 351 Z M 335 356 L 335 359 L 339 358 L 335 356 Z M 279 358 L 281 364 L 278 364 L 281 373 L 281 376 L 279 373 L 279 386 L 283 388 L 280 383 Q 279 380 283 381 L 284 388 Q 280 390 286 393 L 286 391 L 286 386 L 284 382 L 285 376 L 284 371 L 284 374 L 283 374 L 284 363 L 284 361 L 283 358 L 279 358 Z M 288 376 L 288 381 L 289 379 Q 292 378 288 376 Z M 289 381 L 289 386 L 290 386 L 289 381 Z M 278 386 L 279 391 L 279 393 L 279 398 L 281 394 Q 282 388 278 386 Z M 288 395 L 288 398 L 290 399 L 288 395 Z M 280 398 Q 279 401 283 400 Q 284 396 280 398 Z M 284 404 L 284 406 L 281 406 Q 280 408 283 408 Q 285 410 286 407 L 284 404 Z M 318 406 L 318 411 L 319 411 L 318 406 Z M 302 418 L 302 419 L 305 418 L 302 418 Z M 297 419 L 297 420 L 300 419 L 297 419 Z " style="fill: rgba(115, 189, 223, 1); stroke: rgba(115, 189, 223, 1);"/><path d="M 315.63 145 L 316.25 148.13 L 315 148.13 L 315.63 145 Z " style="fill: rgba(115, 189, 223, 1); stroke: rgba(115, 189, 223, 1);"/><path d="M 378.13 148.75 L 386.25 161.88 L 383.75 160.63 L 378.13 148.75 Z " style="fill: rgba(115, 189, 223, 1); stroke: rgba(115, 189, 223, 1);"/><path d="M 315.63 151.25 L 316.25 153.13 L 315 155.63 L 316.25 156.88 L 316.25 166.88 L 316.25 169.38 L 317.5 178.13 L 317.5 180.63 Q 316.25 192.19 320 197.5 L 311.25 194.38 L 310 190 L 305.63 191.25 L 303.75 188.13 L 306.25 188.13 L 307.5 183.13 L 307.5 180.63 L 308.13 175 L 309.38 180 L 311.25 174.38 L 308.75 169.38 L 311.25 169.38 L 311.25 164.38 L 313.75 160.63 Q 312.58 153.83 315.63 151.25 Z M 314 193 L 313 194 L 315 195 L 314 193 Z " style="fill: rgba(115, 189, 223, 1); stroke: rgba(115, 189, 223, 1);"/><path d="M 322.5 153.75 L 325 154.38 L 322.5 155.63 L 322.5 153.75 Z " style="fill: rgba(115, 189, 223, 1); stroke: rgba(115, 189, 223, 1);"/><path d="M 390.63 161.25 Q 393.44 162.19 392.5 166.88 Q 389.37 168.75 393.75 170.63 L 393.13 177.5 L 391.25 171.88 Q 394.06 170.31 390.63 168.75 L 388.75 169.38 L 390.63 166.25 L 388.13 167.5 L 386.25 165.63 L 390.63 161.25 Z " style="fill: rgba(115, 189, 223, 1); stroke: rgba(115, 189, 223, 1);"/><path d="M 265.63 171.25 L 266.25 185.63 L 265 185.63 L 265.63 171.25 Z " style="fill: rgba(115, 189, 223, 1); stroke: rgba(115, 189, 223, 1);"/><path d="M 327.5 178.75 Q 331.25 177.19 330 181.88 L 331.25 184.38 L 331.25 186.88 L 332.5 198.13 L 331.25 198.13 Q 332.5 190.63 328.75 188.13 L 328.75 185.63 L 327.5 178.75 Z " style="fill: rgba(115, 189, 223, 1); stroke: rgba(115, 189, 223, 1);"/><path d="M 288.13 188.75 L 294.38 190 L 296.88 192.5 L 300 190.63 L 299.38 188.75 L 302.5 190.63 Q 301.46 193.91 305.63 192.5 L 305.63 193.75 L 303.75 194.38 Q 305.94 199.69 308.13 196.25 L 311.25 196.88 L 308.75 198.13 L 311.25 199.38 L 309.38 200 L 303.13 196.25 L 301.25 196.88 L 300.63 195 L 298.75 195.63 L 298.13 193.75 L 297.5 196.25 L 288.75 195 Q 287.34 191.67 290.63 192.5 L 289.38 190 L 288.13 188.75 Z " style="fill: rgba(115, 189, 223, 1); stroke: rgba(115, 189, 223, 1);"/><path d="M 264.38 190 L 265 196.88 L 263.75 196.88 L 264.38 190 Z " style="fill: rgba(115, 189, 223, 1); stroke: rgba(115, 189, 223, 1);"/><path d="M 312.5 197.5 L 315 198.13 L 314.38 201.25 L 312.5 197.5 Z " style="fill: rgba(115, 189, 223, 1); stroke: rgba(115, 189, 223, 1);"/><path d="M 263.13 198.75 L 263.75 204.38 L 262.5 204.38 L 263.13 198.75 Z " style="fill: rgba(115, 189, 223, 1); stroke: rgba(115, 189, 223, 1);"/><path d="M 333.13 203.75 L 333.75 213.13 L 332.5 213.13 L 333.13 203.75 Z " style="fill: rgba(115, 189, 223, 1); stroke: rgba(115, 189, 223, 1);"/><path d="M 263.13 206.25 L 263.75 208.13 L 262.5 209.38 L 262.5 246.88 L 261.25 249.38 L 263.75 253.13 L 260.63 266.25 L 260 259.38 L 261.25 256.88 L 260 255.63 L 260 243.13 L 261.25 241.88 L 261.25 209.38 L 263.13 206.25 Z " style="fill: rgba(115, 189, 223, 1); stroke: rgba(115, 189, 223, 1);"/><path d="M 397.5 212.5 L 400 213.13 L 398.13 216.25 L 397.5 212.5 Z " style="fill: rgba(115, 189, 223, 1); stroke: rgba(115, 189, 223, 1);"/><path d="M 270.63 228.75 L 271.25 233.13 L 268.75 234.38 L 270.63 228.75 Z " style="fill: rgba(115, 189, 223, 1); stroke: rgba(115, 189, 223, 1);"/><path d="M 269.38 236.25 L 270 246.88 L 268.13 250 L 267.5 244.38 L 269.38 236.25 Z " style="fill: rgba(115, 189, 223, 1); stroke: rgba(115, 189, 223, 1);"/><path d="M 345.63 248.75 L 349.38 251.25 L 351.25 250.63 L 351.88 252.5 L 352.5 250 L 360 250 L 360 253.13 L 361.88 252.5 L 364.38 251.25 L 365.63 253.75 L 366.25 251.25 L 383.13 255 L 398.75 261.88 L 396.88 261.25 Q 394.06 260.31 395 263.13 L 393.13 262.5 L 390.63 263.75 L 385.63 261.25 L 379.38 262.5 L 375.63 263.75 L 373.13 263.75 L 364.38 266.25 L 351.88 266.25 L 350.63 267.5 L 345 256.88 L 345.63 255 Q 342.81 255.94 343.75 253.13 L 342.5 250 L 345.63 248.75 Z M 354 251 L 354 253 L 356 252 L 354 251 Z " style="fill: rgba(115, 189, 223, 1); stroke: rgba(115, 189, 223, 1);"/><path d="M 304.38 253.75 Q 307.19 252.81 306.25 255.63 L 304.38 253.75 Z " style="fill: rgba(115, 189, 223, 1); stroke: rgba(115, 189, 223, 1);"/><path d="M 265.63 261.25 L 268.13 266.25 Q 269.69 263.44 271.25 266.88 L 269.38 276.25 L 267.5 275.63 Q 263.75 278.44 265 285 Q 260.42 286.69 262.5 279.38 L 262.5 276.88 L 263.75 271.88 L 262.5 269.38 L 265 265.63 L 265 263.13 L 265.63 261.25 Z " style="fill: rgba(115, 189, 223, 1); stroke: rgba(115, 189, 223, 1);"/><path d="M 390.63 267.5 L 391.25 270 L 397.5 271.88 L 394.38 272.5 L 390.63 270 L 389.38 272.5 L 388.75 269.38 L 390.63 267.5 Z " style="fill: rgba(115, 189, 223, 1); stroke: rgba(115, 189, 223, 1);"/><path d="M 400.63 268.75 L 402.5 269.38 Q 399.69 270.94 403.13 272.5 L 407.5 274.38 L 405 275.63 Q 405.94 272.81 403.13 273.75 Q 401.56 276.56 400 273.13 L 398.75 270.63 L 400.63 268.75 Z " style="fill: rgba(115, 189, 223, 1); stroke: rgba(115, 189, 223, 1);"/><path d="M 418.13 268.75 L 418.75 281.88 L 417.5 285.63 L 418.13 287.5 L 415 286.88 Q 415.94 283.12 411.25 285 L 411.25 287.5 Q 414.58 286.09 413.75 289.38 L 415.63 288.75 L 417.5 289.38 L 414.38 291.25 L 412.5 290.63 L 410 295.63 L 410.63 297.5 L 408.75 298.13 L 410 300.63 L 400 315.63 Q 402.81 317.19 399.38 318.75 L 396.88 317.5 L 387.5 325.63 Q 388.54 328.91 384.38 327.5 L 380 328.75 L 378.13 332.5 L 376.25 331.88 L 374.38 335 L 372.5 334.38 Q 373.44 337.19 370.63 336.25 Q 369.06 333.44 367.5 336.88 L 368.13 338.75 L 365.63 337.5 L 365.63 340 L 363.75 339.38 L 361.88 342.5 L 360 343.13 L 363.75 343.75 L 360 361.25 L 350 360 L 349.38 357.5 Q 348.44 360.94 343.13 360 L 339.38 358.75 L 334.38 360 L 331.25 358.75 L 329.38 355 L 327.5 355.63 L 326.25 353.13 L 329.38 347.5 L 331.88 348.75 L 334.38 348.75 L 338.13 350 L 341.25 348.13 Q 338.44 346.56 341.88 345 L 346.88 346.25 L 346.88 345 L 345 344.38 L 348.13 342.5 L 348.13 345 L 351.25 343.13 L 350 340 L 347.5 339.38 L 350.63 337.5 L 350.63 340 L 353.75 339.38 L 352.5 336.25 L 358.75 333.13 L 356.25 332.5 Q 354.84 329.17 358.13 330 L 363.75 327.5 Q 362.34 324.17 365.63 325 L 368.13 325 L 370 325.63 L 369.38 327.5 L 373.13 326.25 L 376.25 328.13 L 375 325.63 L 377.5 325 L 378.13 327.5 L 378.75 325 L 383.13 326.25 L 386.25 325.63 L 388.13 322.5 L 391.25 320.63 L 388.75 319.38 L 391.25 318.13 L 388.75 316.88 L 389.38 315 Q 386.56 315.94 387.5 313.13 L 380 308.13 L 380.63 306.25 L 378.13 307.5 L 376.25 303.75 L 371.88 302.5 L 370.63 305 L 367.5 303.75 Q 369.19 299.17 361.88 301.25 L 360 301.88 L 360.63 298.75 L 369.38 297.5 Q 370.94 300.31 376.88 298.75 L 378.13 297.5 L 403.13 295 Q 404.69 297.81 406.25 294.38 L 412.5 278.75 L 415 278.13 L 413.75 275 L 416.25 274.38 L 413.75 273.75 Q 411.88 269.06 415.63 270 L 417.5 270.63 L 418.13 268.75 Z M 403 296 L 401 299 L 404 298 L 403 296 Z M 399 301 L 398 304 L 400 303 L 399 301 Z M 389 308 L 391 309 Q 392 307 389 308 Z M 393 310 L 390 314 L 394 312 L 393 310 Z M 393 318 L 392 320 L 395 318 L 393 318 Z M 366 326 L 365 328 L 364 330 L 369 328 L 366 326 Z M 361 334 L 359 336 L 363 334 L 361 334 Z M 354 344 L 354 346 L 352 345 L 351 348 L 348 346 L 349 348 L 347 348 L 345 348 L 349 351 L 353 351 L 350 349 L 353 349 L 356 349 Q 358 350 358 347 L 359 348 L 360 344 L 357 345 L 354 344 Z M 342 349 L 339 351 L 342 353 L 343 350 L 344 352 Q 342 355 341 353 L 338 354 L 342 358 L 343 355 L 348 358 L 349 356 L 351 356 L 354 354 L 342 349 Z M 361 350 L 360 354 L 361 354 L 361 350 Z M 352 356 L 351 359 L 355 358 L 352 356 Z " style="fill: rgba(115, 189, 223, 1); stroke: rgba(115, 189, 223, 1);"/><path d="M 295.63 270 L 296.88 272.5 Q 293.39 273.33 295.63 270 Z " style="fill: rgba(115, 189, 223, 1); stroke: rgba(115, 189, 223, 1);"/><path d="M 353.13 273.75 L 353.75 276.88 L 352.5 276.88 L 353.13 273.75 Z " style="fill: rgba(115, 189, 223, 1); stroke: rgba(115, 189, 223, 1);"/><path d="M 293.13 278.75 L 295 282.5 Q 290.6 283.91 293.13 278.75 Z " style="fill: rgba(115, 189, 223, 1); stroke: rgba(115, 189, 223, 1);"/><path d="M 293.13 283.75 L 293.75 286.25 L 291.25 285.63 L 293.13 283.75 Z " style="fill: rgba(115, 189, 223, 1); stroke: rgba(115, 189, 223, 1);"/><path d="M 350.63 285 L 351.25 288.13 Q 348.44 289.69 351.88 291.25 L 356.25 293.13 L 353.13 293.75 L 346.25 288.13 L 350.63 285 Z " style="fill: rgba(115, 189, 223, 1); stroke: rgba(115, 189, 223, 1);"/><path d="M 288.13 288.75 L 288.75 291.88 L 287.5 291.88 L 288.13 288.75 Z " style="fill: rgba(115, 189, 223, 1); stroke: rgba(115, 189, 223, 1);"/><path d="M 344.38 290 L 346.25 293.13 L 343.13 295 L 341.25 291.88 L 343.75 291.88 L 344.38 290 Z " style="fill: rgba(115, 189, 223, 1); stroke: rgba(115, 189, 223, 1);"/><path d="M 399.38 292.5 L 398.13 295 L 399.38 292.5 Z " style="fill: rgba(115, 189, 223, 1); stroke: rgba(115, 189, 223, 1);"/><path d="M 350.63 298.75 L 353.75 300 Q 355.16 303.33 351.88 302.5 L 350.63 298.75 Z " style="fill: rgba(115, 189, 223, 1); stroke: rgba(115, 189, 223, 1);"/><path d="M 355.63 300 L 356.25 303.75 L 360 305.63 L 358.13 305 L 355 303.13 L 355.63 300 Z " style="fill: rgba(115, 189, 223, 1); stroke: rgba(115, 189, 223, 1);"/><path d="M 280.63 301.25 L 282.5 304.38 L 280 305.63 L 281.25 303.13 L 280.63 301.25 Z " style="fill: rgba(115, 189, 223, 1); stroke: rgba(115, 189, 223, 1);"/><path d="M 335.63 302.5 L 337.5 303.13 L 333.75 305.63 L 335.63 306.25 L 337.5 305.63 L 336.25 308.75 Q 332.92 310.16 333.75 306.88 L 327.5 310.63 L 335.63 302.5 Z " style="fill: rgba(115, 189, 223, 1); stroke: rgba(115, 189, 223, 1);"/><path d="M 364.38 305 L 368.75 308.13 L 366.88 308.75 Q 364.69 304.9 362.5 306.88 L 364.38 305 Z " style="fill: rgba(115, 189, 223, 1); stroke: rgba(115, 189, 223, 1);"/><path d="M 371.88 315 Q 374.69 314.06 373.75 316.88 L 372.5 320 L 376.88 318.75 L 379.38 318.75 L 381.25 319.38 L 373.13 322.5 L 359.38 323.75 L 358.13 322.5 L 343.75 321.88 Q 345.47 317.97 351.88 318.75 L 356.88 321.25 L 360 319.38 L 357.5 318.13 L 359.38 317.5 L 361.88 318.75 L 371.88 315 Z " style="fill: rgba(115, 189, 223, 1); stroke: rgba(115, 189, 223, 1);"/><path d="M 283.75 322.5 L 286.25 323.13 L 283.75 324.38 L 283.75 322.5 Z " style="fill: rgba(115, 189, 223, 1); stroke: rgba(115, 189, 223, 1);"/><path d="M 261.25 338.75 L 263.75 339.38 L 263.13 341.25 L 265 341.25 L 265 346.25 L 262.5 346.88 L 265 347.5 L 265 353.75 L 263.13 353.75 L 263.13 355 L 265 355.63 L 263.75 358.75 L 260.63 360 L 260 356.88 L 262.5 348.13 L 261.25 346.88 L 261.25 338.75 Z " style="fill: rgba(115, 189, 223, 1); stroke: rgba(115, 189, 223, 1);"/><path d="M 304.38 345 L 308.75 346.88 L 305.63 347.5 L 304.38 345 Z " style="fill: rgba(115, 189, 223, 1); stroke: rgba(115, 189, 223, 1);"/><path d="M 333.13 361.25 L 338.13 363.75 L 341.88 362.5 L 344.38 362.5 L 349.38 363.75 L 350.63 361.25 L 353.75 362.5 Q 355.44 367.08 348.13 365 L 344.38 363.75 L 338.13 365 L 333.13 362.5 L 333.13 361.25 Z " style="fill: rgba(115, 189, 223, 1); stroke: rgba(115, 189, 223, 1);"/><path d="M 260 365 L 262.5 365.63 L 260.63 370 Q 257.19 368.44 260 366.88 L 260 365 Z " style="fill: rgba(115, 189, 223, 1); stroke: rgba(115, 189, 223, 1);"/><path d="M 259.38 373.75 L 263.75 375 Q 265.63 380.63 260 378.75 L 259.38 373.75 Z " style="fill: rgba(115, 189, 223, 1); stroke: rgba(115, 189, 223, 1);"/><path d="M 328.75 373.75 L 332.5 375.63 L 331.88 377.5 L 330.63 375 L 328.75 375.63 L 328.75 373.75 Z " style="fill: rgba(115, 189, 223, 1); stroke: rgba(115, 189, 223, 1);"/><path d="M 260 380 Q 266.56 377.71 263.75 386.88 L 262.5 386.88 L 261.88 385 L 260.63 387.5 L 260 380 Z " style="fill: rgba(115, 189, 223, 1); stroke: rgba(115, 189, 223, 1);"/><path d="M 246.88 382.5 L 247.5 386.88 L 246.25 386.88 L 246.88 382.5 Z " style="fill: rgba(115, 189, 223, 1); stroke: rgba(115, 189, 223, 1);"/><path d="M 250.63 388.75 Q 256.25 391.25 251.88 393.75 L 248.75 393.13 L 250.63 388.75 Z " style="fill: rgba(115, 189, 223, 1); stroke: rgba(115, 189, 223, 1);"/><path d="M 260.63 388.75 L 261.25 391.88 L 260 391.88 L 260.63 388.75 Z " style="fill: rgba(115, 189, 223, 1); stroke: rgba(115, 189, 223, 1);"/><path d="M 310.63 406.25 L 311.25 409.38 L 310 409.38 L 310.63 406.25 Z " style="fill: rgba(115, 189, 223, 1); stroke: rgba(115, 189, 223, 1);"/><path d="M 305.63 407.5 L 306.88 410 L 301.25 409.38 L 305.63 407.5 Z " style="fill: rgba(115, 189, 223, 1); stroke: rgba(115, 189, 223, 1);"/><path d="M 254.38 411.25 Q 260.63 414.38 254.38 417.5 L 251.25 416.88 L 254.38 411.25 Z " style="fill: rgba(115, 189, 223, 1); stroke: rgba(115, 189, 223, 1);"/><path d="M 247.5 412.5 L 251.25 414.38 Q 249.38 418.13 247.5 414.38 L 247.5 412.5 Z " style="fill: rgba(115, 189, 223, 1); stroke: rgba(115, 189, 223, 1);"/><path d="M 245 416.25 L 247.5 416.88 L 246.25 419.38 L 246.25 421.88 Q 247.66 426.04 244.38 425 L 245 423.13 L 245 416.25 Z " style="fill: rgba(115, 189, 223, 1); stroke: rgba(115, 189, 223, 1);"/><path d="M 331.88 417.5 L 330.63 420 L 331.88 417.5 Z " style="fill: rgba(115, 189, 223, 1); stroke: rgba(115, 189, 223, 1);"/><path d="M 266.88 0 Q 273.67 -1.17 276.25 1.88 L 274.38 2.5 Q 272.81 -0.31 266.88 1.25 L 266.88 0 Z " style="fill: rgba(217, 168, 173, 1); stroke: rgba(217, 168, 173, 1);"/><path d="M 630.63 1.25 L 631.25 3.75 L 640 8.13 Q 641.41 12.29 638.13 11.25 L 638.13 12.5 L 640 13.13 L 638.13 13.75 L 635.63 13.75 L 632.5 13.13 L 633.13 11.25 L 630 11.25 Q 631.88 6.56 628.13 7.5 L 629.38 3.75 L 627.5 3.13 L 630.63 1.25 Z " style="fill: rgba(217, 168, 173, 1); stroke: rgba(217, 168, 173, 1);"/><path d="M 278.13 2.5 L 283.75 4.38 L 281.88 5 L 278.13 3.75 L 278.13 2.5 Z " style="fill: rgba(217, 168, 173, 1); stroke: rgba(217, 168, 173, 1);"/><path d="M 288.13 6.25 L 291.25 8.13 L 289.38 7.5 L 288.13 6.25 Z " style="fill: rgba(217, 168, 173, 1); stroke: rgba(217, 168, 173, 1);"/><path d="M 294.38 7.5 L 298.13 12.5 L 295 10.63 L 294.38 8.75 L 292.5 9.38 L 294.38 7.5 Z " style="fill: rgba(217, 168, 173, 1); stroke: rgba(217, 168, 173, 1);"/><path d="M 303.13 16.25 L 315.63 28.75 L 317.5 28.75 Q 316.56 33.54 320.63 35 L 321.88 32.5 L 322.5 34.38 Q 319.69 35.94 323.13 37.5 L 327.5 40.63 L 325 41.25 L 324.38 43.75 L 303.13 16.25 Z " style="fill: rgba(217, 168, 173, 1); stroke: rgba(217, 168, 173, 1);"/><path d="M 320.63 27.5 L 321.88 30 L 320.63 27.5 Z " style="fill: rgba(217, 168, 173, 1); stroke: rgba(217, 168, 173, 1);"/><path d="M 324.38 32.5 L 326.25 35.63 L 325 35.63 L 324.38 32.5 Z " style="fill: rgba(217, 168, 173, 1); stroke: rgba(217, 168, 173, 1);"/><path d="M 330.63 41.25 L 335 50.63 L 333.75 53.13 L 336.25 53.13 L 343.13 62.5 Q 344.69 59.69 346.25 63.13 Q 356.94 73.68 362.5 89.38 L 359.38 91.25 Q 357.63 88 351.88 88.75 L 350.63 92.5 L 346.88 93.75 L 346.25 90.63 L 345 83.13 L 330 63.13 L 325 45.63 L 328.75 44.38 L 330.63 41.25 Z M 331 44 L 329 46 Q 328 50 331 49 L 331 44 Z M 332 49 L 331 52 L 333 52 L 332 49 Z M 334 56 Q 332 60 336 59 L 334 56 Z " style="fill: rgba(217, 168, 173, 1); stroke: rgba(217, 168, 173, 1);"/><path d="M 291.25 47.5 L 295 48.13 L 291.88 50 L 291.25 47.5 Z " style="fill: rgba(217, 168, 173, 1); stroke: rgba(217, 168, 173, 1);"/><path d="M 295.63 50 L 301.88 55 L 303.75 54.38 L 302.5 56.88 L 305 56.88 Q 306.82 66.82 301.88 70 L 302.5 68.13 L 300.63 65 Q 297.34 66.04 298.75 61.88 L 301.25 56.88 L 300 53.75 L 295 51.88 L 295.63 50 Z " style="fill: rgba(217, 168, 173, 1); stroke: rgba(217, 168, 173, 1);"/><path d="M 251.88 56.25 L 258.13 57.5 L 260.63 60 L 269.38 60 L 275 64.38 Q 280.41 69.59 281.88 78.75 L 283.75 78.13 L 282.5 81.88 Q 286.46 84.38 286.25 90 L 288.75 90.63 L 288.75 100.63 L 290 100.63 L 290.63 92.5 L 291.25 100.63 L 288.13 107.5 L 288.75 105.63 L 288.13 103.75 L 283.75 111.25 L 281.25 111.88 L 281.25 114.38 L 280.63 116.25 L 279.38 113.75 L 275.63 121.25 Q 268.02 122.81 268.75 119.38 Q 265.94 117.81 269.38 116.25 Q 273.12 117.19 271.25 112.5 L 265 113.75 L 268.13 108.75 L 272.5 108.13 L 266.88 106.25 Q 263.38 110.88 255.63 111.25 L 256.25 109.38 L 253.75 105.63 L 257.5 105 L 258.75 101.88 L 256.88 97.5 L 254.38 96.25 L 253.75 98.13 L 255 101.88 L 248.75 105.63 L 248.75 107.5 L 243.75 107.5 L 242.5 97.5 L 245 98.13 L 243.75 101.88 L 246.88 102.5 L 248.75 101.88 L 246.25 96.88 L 248.75 95.63 L 242.5 92.5 L 241.88 95 L 241.25 93.13 L 242.5 89.38 L 240 89.38 L 234.38 82.5 L 231.25 80.63 L 226.25 69.38 L 226.25 61.88 L 230.63 58.75 Q 232.19 61.56 238.13 60 L 251.88 56.25 Z M 259 66 L 258 68 L 260 69 L 259 66 Z M 271 68 Q 267 69 270 71 L 269 73 L 268 70 L 266 73 L 267 76 Q 272 77 273 74 Q 274 67 271 68 Z M 246 70 L 244 72 L 246 73 L 246 70 Z M 249 70 L 250 72 L 244 74 L 238 81 L 238 84 L 251 88 L 256 88 Q 261 84 260 75 L 254 76 L 249 76 L 255 72 L 249 70 Z " style="fill: rgba(217, 168, 173, 1); stroke: rgba(217, 168, 173, 1);"/><path d="M 295.63 78.75 L 296.25 83.13 L 295 83.13 L 295.63 78.75 Z " style="fill: rgba(217, 168, 173, 1); stroke: rgba(217, 168, 173, 1);"/><path d="M 303.13 82.5 Q 306.41 81.67 305 85 L 301.25 84.38 L 303.13 82.5 Z " style="fill: rgba(217, 168, 173, 1); stroke: rgba(217, 168, 173, 1);"/><path d="M 328.13 92.5 L 329.38 95 L 328.13 92.5 Z " style="fill: rgba(217, 168, 173, 1); stroke: rgba(217, 168, 173, 1);"/><path d="M 363.13 93.75 Q 365.94 92.81 365 95.63 L 376.25 109.38 L 378.75 119.38 L 381.88 122.5 Q 384.69 121.56 383.75 124.38 L 389.38 132.5 Q 392.66 131.67 391.25 135 L 394.38 135 L 400.63 141.25 L 403.13 141.25 L 408.75 144.38 L 408.75 147.5 Q 412.08 146.09 411.25 149.38 Q 413.89 158.61 420.63 163.75 L 423.13 162.5 L 423.75 165 L 428.13 162.5 L 435 165.63 L 437.5 169.38 L 438.75 175.63 L 437.5 179.38 L 443.75 182.5 L 444.38 180 Q 446.19 184.06 452.5 182.5 L 453.75 190.63 L 457.5 195.63 L 461.25 210.63 L 463.75 229.38 L 466.88 232.5 Q 470.16 231.67 468.75 235 L 473.13 235 L 480 238.75 L 480 242.5 Q 483.33 241.09 482.5 244.38 L 486.25 253.75 Q 490.52 252.81 491.88 256.25 L 493.75 255.63 L 493.13 258.75 L 490 257.5 L 488.75 261.88 L 493.13 270 L 503.75 271.25 Q 501.88 264.53 505.63 262.5 Q 508.44 263.44 507.5 260.63 L 508.75 255 Q 512.08 253.59 511.25 256.88 L 517.5 271.88 L 524.38 280 L 535 281.25 L 533.75 287.5 Q 529.06 285.62 530 289.38 L 531.25 293.75 Q 535 292.5 533.75 296.25 L 538.13 296.25 Q 540 299.37 541.88 295 L 545 295 L 545 286.88 L 545 284.38 L 545.63 282.5 L 552.5 282.5 L 552.5 290 L 556.25 290 L 558.13 286.25 L 561.88 288.75 L 565 290 Q 563.36 285.83 569.38 287.5 L 576.25 286.25 L 576.25 283.75 L 578.75 283.75 Q 577.34 280.42 580.63 281.25 Q 583.75 282.73 582.5 287.5 L 592.5 291.25 Q 590.62 286.56 594.38 287.5 L 597.5 286.25 L 600.63 277.5 Q 604.37 278.59 602.5 273.13 L 604.38 273.75 L 610 275 L 619.38 252.5 L 620.63 255 L 621.88 252.5 L 622.5 255 Q 627.19 256.87 626.25 253.13 L 627.5 250 L 639.38 245 L 640 425 L 448.75 424.38 L 460 401.88 Q 458.44 395.31 461.88 393.75 Q 465.62 394.84 463.75 389.38 L 462.5 388.13 L 462.5 374.38 L 463.75 368.75 L 466.25 368.13 L 466.25 365.63 L 468.75 348.13 L 467.5 346.88 L 467.5 336.88 Q 461.57 328.43 460 315.63 L 460.63 313.75 Q 456.87 314.84 458.75 309.38 L 448.75 286.88 L 449.38 285 Q 446.56 285.94 447.5 283.13 Q 439.78 268.34 426.88 258.75 L 423.75 256.88 Q 431.72 249.98 433.75 238.75 Q 437.92 240.16 436.25 235 Q 432.5 236.56 433.75 231.88 L 431.25 226.88 Q 434.06 225.31 430.63 223.75 L 422.5 221.25 L 421.88 218.75 Q 419.69 222.19 411.88 220 Q 410 216.87 408.13 221.25 L 404.38 222.5 Q 399.06 220.31 402.5 218.13 L 401.25 213.13 L 402.5 213.13 L 403.13 215 L 403.75 211.88 L 395 180.63 L 397.5 176.88 L 396.25 171.88 L 396.88 170 Q 393.59 171.04 395 166.88 L 394.38 165 L 396.25 165.63 L 395.63 161.25 L 394.38 163.75 L 393.75 161.88 L 394.38 160 L 390 156.88 L 383.75 145.63 L 383.75 143.13 L 380 135.63 L 382.5 131.88 L 380.63 132.5 L 377.5 130.63 Q 378.44 125.94 375.63 125 Q 372.81 125.94 373.75 123.13 L 371.25 118.75 L 363.75 116.25 L 363.75 113.75 Q 360.42 115.16 361.25 111.88 L 357.5 110.63 L 361.25 105.63 L 358.75 96.88 L 361.25 96.88 L 363.13 93.75 Z M 387 145 L 388 149 L 389 149 L 387 145 Z " style="fill: rgba(217, 168, 173, 1); stroke: rgba(217, 168, 173, 1);"/><path d="M 326.88 101.25 L 325.63 103.75 L 326.88 101.25 Z " style="fill: rgba(217, 168, 173, 1); stroke: rgba(217, 168, 173, 1);"/><path d="M 310.63 102.5 L 313.13 103.75 L 317.5 102.5 L 319.38 106.25 L 323.13 103.75 L 316.88 111.25 Q 314.06 110.31 315 113.13 L 308.13 118.75 L 310.63 113.75 L 306.88 111.25 L 308.13 108.75 L 309.38 111.25 L 310 106.88 L 309.38 105 L 311.25 104.38 L 310.63 102.5 Z " style="fill: rgba(217, 168, 173, 1); stroke: rgba(217, 168, 173, 1);"/><path d="M 365.63 126.25 L 369.38 131.25 L 365.63 126.25 Z " style="fill: rgba(217, 168, 173, 1); stroke: rgba(217, 168, 173, 1);"/><path d="M 311.88 145 L 312.5 147.5 Q 315.83 146.09 315 149.38 L 315.63 151.25 L 313.75 150.63 L 312.5 156.88 Q 315.31 158.44 311.88 160 L 310.63 156.25 L 309.38 160 L 308.75 156.25 L 305 155.63 L 308.75 154.38 L 306.25 153.75 L 308.13 150 L 309.38 153.75 L 311.88 145 Z " style="fill: rgba(217, 168, 173, 1); stroke: rgba(217, 168, 173, 1);"/><path d="M 323.13 147.5 L 323.75 150.63 L 322.5 150.63 L 323.13 147.5 Z " style="fill: rgba(217, 168, 173, 1); stroke: rgba(217, 168, 173, 1);"/><path d="M 275.63 150 L 276.25 153.13 L 275 153.13 L 275.63 150 Z " style="fill: rgba(217, 168, 173, 1); stroke: rgba(217, 168, 173, 1);"/><path d="M 306.88 157.5 L 306.25 159.38 L 305.63 161.25 L 305 159.38 L 306.88 157.5 Z " style="fill: rgba(217, 168, 173, 1); stroke: rgba(217, 168, 173, 1);"/><path d="M 301.88 162.5 L 306.88 163.75 L 308.75 163.13 Q 307.81 165.94 303.13 165 L 301.88 162.5 Z " style="fill: rgba(217, 168, 173, 1); stroke: rgba(217, 168, 173, 1);"/><path d="M 415.63 227.5 Q 423.13 226.25 425.63 230 L 427.5 229.38 L 426.88 231.25 Q 429.69 230.31 428.75 233.13 L 425.63 237.5 L 423.75 238.13 L 425 239.38 L 421.25 243.13 L 416.88 248.75 L 414.38 250 L 410 231.88 L 410.63 228.75 L 415.63 227.5 Z " style="fill: rgba(217, 168, 173, 1); stroke: rgba(217, 168, 173, 1);"/><path d="M 304.38 348.75 L 306.25 349.38 L 302.5 355 L 299.38 353.75 L 295.63 356.25 L 300.63 350 L 301.88 352.5 L 304.38 348.75 Z " style="fill: rgba(217, 168, 173, 1); stroke: rgba(217, 168, 173, 1);"/><path d="M 320.63 356.25 L 321.25 359.38 L 321.25 361.25 Q 316.56 359.37 317.5 363.13 L 310 368.13 L 314.38 371.25 L 316.25 370.63 L 314.38 375 Q 311.56 374.06 312.5 376.88 L 308.75 384.38 L 309.38 386.25 L 305.63 388.75 L 303.75 392.5 L 299.38 390 L 297.5 390.63 Q 300.31 389.06 296.88 387.5 L 295 388.13 L 296.25 384.38 L 296.25 381.88 Q 297.08 378.59 293.75 380 L 293.75 377.5 Q 297.5 378.75 296.25 375 L 293.13 376.25 L 291.25 368.13 L 293.75 368.13 L 296.88 363.75 L 299.38 362.5 L 300.63 365 L 301.88 358.75 L 305 365.63 Q 301.56 366.98 302.5 371.25 L 307.5 370.63 L 306.25 365 L 310.63 366.25 L 316.25 363.75 L 320.63 356.25 Z M 299 369 L 298 373 L 301 371 Q 302 367 299 369 Z " style="fill: rgba(217, 168, 173, 1); stroke: rgba(217, 168, 173, 1);"/><path d="M 360.63 358.75 Q 365 361.25 359.38 363.75 L 355 363.13 L 360 362.5 L 360.63 358.75 Z " style="fill: rgba(217, 168, 173, 1); stroke: rgba(217, 168, 173, 1);"/><path d="M 358.75 365 L 361.25 365.63 L 357.5 368.13 L 358.75 365 Z " style="fill: rgba(217, 168, 173, 1); stroke: rgba(217, 168, 173, 1);"/><path d="M 360.63 368.75 L 361.88 371.25 L 360.63 368.75 Z " style="fill: rgba(217, 168, 173, 1); stroke: rgba(217, 168, 173, 1);"/><path d="M 360.63 378.75 L 362.5 379.38 L 360 380 Q 361.41 383.33 358.13 382.5 L 355.63 383.75 L 354.38 381.25 L 356.88 381.25 L 360.63 378.75 Z " style="fill: rgba(217, 168, 173, 1); stroke: rgba(217, 168, 173, 1);"/><path d="M 355.63 385 L 358.13 386.25 Q 360.31 382.81 362.5 388.13 Q 364.58 395.44 360 393.75 Q 361.87 389.06 358.13 390 L 358.75 391.88 L 356.88 395 Q 353.59 396.04 355 391.88 L 353.75 389.38 L 355.63 385 Z " style="fill: rgba(217, 168, 173, 1); stroke: rgba(217, 168, 173, 1);"/><path d="M 356.88 396.25 L 357.5 399.38 L 355 398.13 L 356.88 396.25 Z " style="fill: rgba(217, 168, 173, 1); stroke: rgba(217, 168, 173, 1);"/><path d="M 350.63 398.75 L 355 400.63 L 352.5 401.88 Q 353.44 399.06 350.63 400 L 346.88 402.5 L 348.13 400 L 350.63 398.75 Z " style="fill: rgba(217, 168, 173, 1); stroke: rgba(217, 168, 173, 1);"/><path d="M 358.13 401.25 L 363.75 401.88 L 359.38 403.75 L 358.13 401.25 Z " style="fill: rgba(217, 168, 173, 1); stroke: rgba(217, 168, 173, 1);"/><path d="M 344.38 402.5 L 343.13 405 L 341.25 404.38 L 344.38 402.5 Z " style="fill: rgba(217, 168, 173, 1); stroke: rgba(217, 168, 173, 1);"/><path d="M 365.63 402.5 L 367.5 405.63 L 365 404.38 L 365.63 402.5 Z " style="fill: rgba(217, 168, 173, 1); stroke: rgba(217, 168, 173, 1);"/><path d="M 339.38 405 L 338.13 407.5 L 339.38 405 Z " style="fill: rgba(217, 168, 173, 1); stroke: rgba(217, 168, 173, 1);"/><path d="M 369.38 405 L 370 407.5 Q 373.33 406.09 372.5 409.38 L 370.63 408.75 Q 366.72 409.69 369.38 405 Z " style="fill: rgba(217, 168, 173, 1); stroke: rgba(217, 168, 173, 1);"/><path d="M 336.88 410 L 337.5 413.75 L 335 414.38 Q 337.81 415.94 334.38 417.5 L 332.5 416.88 L 336.88 410 Z " style="fill: rgba(217, 168, 173, 1); stroke: rgba(217, 168, 173, 1);"/><path d="M 374.38 415 L 378.75 424.38 L 377.5 424.38 Q 372.21 421.12 374.38 415 Z " style="fill: rgba(217, 168, 173, 1); stroke: rgba(217, 168, 173, 1);"/><path d="M 260.63 416.25 L 259.38 418.75 L 260.63 416.25 Z " style="fill: rgba(217, 168, 173, 1); stroke: rgba(217, 168, 173, 1);"/><path d="M 273.13 418.75 L 276.25 419.38 L 273.13 420 L 273.13 418.75 Z " style="fill: rgba(217, 168, 173, 1); stroke: rgba(217, 168, 173, 1);"/><path d="M 331.88 418.75 Q 334.69 417.81 333.75 420.63 Q 337.19 422.81 331.88 425 L 332.5 423.13 L 331.88 418.75 Z " style="fill: rgba(217, 168, 173, 1); stroke: rgba(217, 168, 173, 1);"/><path d="M 355.63 418.75 L 354.38 421.25 L 355.63 418.75 Z " style="fill: rgba(217, 168, 173, 1); stroke: rgba(217, 168, 173, 1);"/><path d="M 338.13 420 L 338.75 425 Q 335 426.56 336.25 421.88 L 338.13 420 Z " style="fill: rgba(217, 168, 173, 1); stroke: rgba(217, 168, 173, 1);"/><path d="M 260.63 1.25 L 273.13 1.25 L 284.38 5 Q 300.5 11.38 310 24.38 L 323.75 41.88 L 327.5 50.63 L 330 63.13 L 345 83.13 L 347.5 91.88 Q 342.18 97.24 332.5 96.25 Q 333.91 99.58 330.63 98.75 L 319.38 106.25 L 316.88 106.25 L 315 105.63 L 317.5 105 Q 319.06 101.25 314.38 102.5 L 308.75 105.63 L 310 110.63 L 308.75 113.13 L 310 115.63 L 295.63 133.75 Q 292.81 132.81 293.75 135.63 L 291.25 139.38 L 292.5 141.88 L 291.25 141.88 Q 292.19 138.12 287.5 140 L 287.5 143.13 L 295 150.63 L 290 152.5 L 289.38 157.5 L 286.88 156.25 L 285 156.88 L 287.5 151.25 L 284.38 152.5 Q 282.81 148.75 277.5 150 Q 275.42 144.84 280.63 146.25 L 280.63 145 L 278.75 144.38 L 282.5 143.13 L 278.13 142.5 L 275 150.63 L 272.5 176.88 L 268.75 184.38 L 266.25 198.13 L 267.5 199.38 L 267.5 209.38 Q 270.71 213.04 270 220.63 L 267.5 226.88 L 263.13 251.25 L 261.25 248.13 L 262.5 246.88 L 262.5 209.38 L 261.25 209.38 L 260 255.63 L 261.25 258.13 L 260 259.38 L 260 269.38 L 256.88 285 L 256.25 278.13 Q 260.83 267.71 258.75 250.63 L 256.25 244.38 L 258.75 244.38 Q 260 239.69 256.25 241.25 L 256.25 236.88 L 257.5 233.13 L 256.25 233.13 Q 257.08 236.41 253.75 235 L 247.5 226.88 L 245 219.38 L 246.25 215.63 L 243.75 213.13 L 242.5 205.63 L 245 201.88 L 242.5 201.88 L 243.75 199.38 L 237.5 187.5 L 235 186.88 L 235 184.38 L 231.25 175.63 L 231.25 168.13 Q 226.57 160.93 226.88 148.75 L 225 149.38 L 226.25 148.13 L 226.25 138.13 L 226.25 135.63 L 226.25 125.63 L 230 115.63 L 230 113.13 L 228.75 106.88 L 230 104.38 L 224.38 98.75 L 222.5 99.38 Q 225.94 97.19 220.63 95 L 218.75 95.63 L 219.38 93.75 L 215 90.63 L 210 84.38 L 210 79.38 L 206.25 69.38 L 207.5 64.38 L 206.25 60.63 L 209.38 56.25 L 211.25 55.63 L 210.63 53.75 L 215 50.63 L 215 48.13 L 217.5 40.63 L 216.25 37.5 L 219.38 38.75 L 234.38 20 L 235.63 21.25 L 240 16.88 Q 238.96 13.59 243.13 15 L 246.25 13.13 Q 243.44 11.56 246.88 10 L 260.63 1.25 Z M 291 48 L 292 50 L 295 48 L 291 48 Z M 296 50 L 297 54 L 300 53 L 296 50 Z M 301 54 L 301 57 L 299 62 Q 297 66 301 65 L 303 69 Q 307 65 305 57 L 303 58 L 301 54 Z M 252 56 L 238 60 Q 232 62 231 59 L 226 62 L 226 69 L 231 81 L 234 83 L 241 91 L 243 104 L 244 108 L 249 108 L 249 106 L 255 102 L 254 98 L 254 96 L 257 98 L 259 102 L 258 105 L 254 106 L 256 109 L 256 111 Q 263 111 267 106 L 273 108 L 268 109 L 265 114 L 271 113 Q 273 117 269 116 Q 266 118 269 119 Q 268 123 276 121 L 279 114 L 284 111 L 288 104 L 289 106 L 290 106 L 289 101 L 289 91 L 286 90 L 280 72 L 275 64 L 269 60 L 261 60 L 258 58 L 252 56 Z M 296 79 L 295 83 L 296 83 L 296 79 Z M 303 83 L 301 84 L 305 85 Q 306 82 303 83 Z M 291 93 L 290 101 L 291 101 L 291 93 Z M 308 109 L 306 111 L 309 111 L 308 109 Z M 283 141 L 283 143 L 286 142 L 283 141 Z M 266 171 L 265 186 L 266 186 L 266 171 Z M 264 190 L 264 197 L 265 197 L 264 190 Z M 308 196 L 307 199 L 311 197 L 308 196 Z M 313 198 L 313 199 L 315 198 L 313 198 Z M 263 199 L 263 204 L 264 204 L 263 199 Z M 258 236 L 258 239 L 259 239 L 258 236 Z " style="fill: rgba(67, 98, 107, 1); stroke: rgba(67, 98, 107, 1);"/><path d="M 250.63 71.25 L 255 71.88 L 248.75 75.63 L 254.38 76.25 L 260 75 Q 261.22 83.78 255.63 87.5 L 250.63 87.5 L 237.5 83.75 L 237.5 80.63 L 244.38 73.75 L 250.63 71.25 Z " style="fill: rgba(67, 98, 107, 1); stroke: rgba(67, 98, 107, 1);"/><path d="M 340.63 111.25 L 343.75 111.88 L 339.38 113.75 L 340.63 111.25 Z " style="fill: rgba(67, 98, 107, 1); stroke: rgba(67, 98, 107, 1);"/><path d="M 340.63 115 Q 362.88 116.49 372.5 130.63 L 375 134.38 L 365.63 126.25 L 355.63 120 L 341.25 117.5 L 340.63 120 L 338.13 118.75 L 325 130.63 L 322.5 135.63 L 322.5 155.63 L 328.75 181.88 L 328.75 188.13 L 331.25 191.88 L 333.75 223.13 Q 340.21 235.42 342.5 251.88 L 353.13 270 L 355 270.63 Q 351 273.5 352.5 281.88 L 346.25 290 L 338.75 294.38 L 337.5 302.5 L 327.5 310.63 L 323.75 317.5 L 317.5 315.63 L 332.5 295.63 L 335 286.25 L 338.75 284.38 L 336.88 280 L 332.5 281.25 L 332.5 283.75 Q 329.17 282.34 330 285.63 L 328.75 285.63 L 335 276.88 L 335 270.63 L 328.13 246.25 L 325 248.13 Q 329.38 246.25 327.5 238.13 L 324.38 227.5 L 323.75 230 L 320 229.38 L 322.5 226.88 L 323.75 219.38 L 320 216.88 Q 321.41 221.04 318.13 220 L 313.13 231.25 L 312.5 228.13 L 313.75 223.75 Q 309.06 221.87 310 225.63 L 308.75 225.63 L 308.13 223.75 L 305.63 227.5 L 306.25 225.63 L 305.63 221.25 L 303.13 221.25 L 300 220.63 L 301.88 218.75 L 315.63 218.75 L 317.5 216.88 L 316.88 215 L 313.75 216.88 L 316.88 211.25 L 318.13 213.75 L 321.25 205.63 L 318.75 205.63 Q 319.69 202.81 316.88 203.75 L 299.38 198.75 Q 297.5 201.87 295.63 197.5 Q 284.69 197.19 277.5 193.13 L 283.13 188.75 L 290 190.63 L 288.75 195 L 297.5 196.25 L 299.38 192.5 L 298.75 194.38 L 299.38 196.25 L 301.25 195.63 L 301.88 197.5 L 304.38 197.5 Q 307.66 198.33 306.25 195 L 303.75 194.38 L 306.88 193.75 L 320 197.5 L 317.5 190.63 L 317.5 180.63 L 316.25 179.38 L 317.5 174.38 L 315 168.13 L 316.25 166.88 L 316.25 143.13 L 317.5 138.13 L 321.25 129.38 L 330.63 117.5 L 333.13 118.75 L 340.63 115 Z " style="fill: rgba(67, 98, 107, 1); stroke: rgba(67, 98, 107, 1);"/><path d="M 341.88 122.5 L 349.38 137.5 L 355.63 136.25 L 355.63 137.5 Q 348.05 136.8 345.63 141.25 L 340.63 141.25 L 340.63 140 Q 346.25 141.25 347.5 138.13 L 346.88 136.25 L 343.75 137.5 L 341.88 122.5 Z " style="fill: rgba(67, 98, 107, 1); stroke: rgba(67, 98, 107, 1);"/><path d="M 318.13 127.5 L 317.5 129.38 L 315 139.38 L 312.5 141.88 L 313.75 146.88 L 312.5 146.88 L 311.88 145 L 308.13 155 L 305 155.63 L 308.75 156.25 L 309.38 160 L 310.63 156.25 L 312.5 156.88 L 313.13 155 L 313.75 156.88 L 309.38 162.5 L 303.13 163.75 Q 299.69 162.19 301.25 155.63 L 302.5 151.88 L 301.25 146.88 L 314.38 130 L 318.13 127.5 Z M 308 150 L 306 152 Q 305 155 309 154 L 308 150 Z " style="fill: rgba(67, 98, 107, 1); stroke: rgba(67, 98, 107, 1);"/><path d="M 349.38 128.75 L 352.5 129.38 L 352.5 131.88 Q 353.44 134.69 350.63 133.75 L 348.75 134.38 L 350 130.63 L 349.38 128.75 Z " style="fill: rgba(67, 98, 107, 1); stroke: rgba(67, 98, 107, 1);"/><path d="M 314.38 150 L 315 153.13 L 313.75 153.13 L 314.38 150 Z " style="fill: rgba(67, 98, 107, 1); stroke: rgba(67, 98, 107, 1);"/><path d="M 276.88 155 L 280 155.63 L 276.88 156.25 L 276.88 155 Z " style="fill: rgba(67, 98, 107, 1); stroke: rgba(67, 98, 107, 1);"/><path d="M 283.13 158.75 L 281.88 161.25 L 283.13 158.75 Z " style="fill: rgba(67, 98, 107, 1); stroke: rgba(67, 98, 107, 1);"/><path d="M 280 162.5 Q 283.33 161.09 282.5 164.38 L 280 165.63 L 280 162.5 Z " style="fill: rgba(67, 98, 107, 1); stroke: rgba(67, 98, 107, 1);"/><path d="M 389.38 163.75 L 390 166.88 L 392.5 170.63 L 390 171.25 L 387.5 165.63 L 389.38 163.75 Z " style="fill: rgba(67, 98, 107, 1); stroke: rgba(67, 98, 107, 1);"/><path d="M 273.13 186.25 L 276.25 186.88 L 273.13 187.5 L 273.13 186.25 Z " style="fill: rgba(67, 98, 107, 1); stroke: rgba(67, 98, 107, 1);"/><path d="M 290.63 200 L 292.5 201.88 L 292.5 211.88 L 293.75 213.13 L 291.25 214.38 L 296.25 215 L 295.63 217.5 L 290.63 215 L 283.75 216.25 L 282.5 210.63 L 286.88 206.25 L 288.13 207.5 L 291.25 205.63 L 289.38 202.5 L 287.5 203.13 L 290.63 200 Z " style="fill: rgba(67, 98, 107, 1); stroke: rgba(67, 98, 107, 1);"/><path d="M 276.88 201.25 L 276.25 203.13 L 277.5 208.13 L 272.5 209.38 L 276.88 201.25 Z " style="fill: rgba(67, 98, 107, 1); stroke: rgba(67, 98, 107, 1);"/><path d="M 310.63 210 Q 314.79 208.59 313.75 211.88 L 311.88 211.25 L 309.38 212.5 L 310.63 210 Z " style="fill: rgba(67, 98, 107, 1); stroke: rgba(67, 98, 107, 1);"/><path d="M 299.38 213.75 L 311.25 214.38 L 309.38 217.5 L 308.13 215 L 307.5 217.5 Q 303.75 218.75 305 215 L 299.38 215 L 299.38 213.75 Z " style="fill: rgba(67, 98, 107, 1); stroke: rgba(67, 98, 107, 1);"/><path d="M 294.38 220 L 298.75 220.63 L 294.38 221.25 L 294.38 220 Z " style="fill: rgba(67, 98, 107, 1); stroke: rgba(67, 98, 107, 1);"/><path d="M 409.38 220 Q 425.47 217.66 431.25 225.63 L 435 238.13 Q 431.3 249.43 423.75 256.88 L 441.25 273.13 L 456.25 301.88 L 462.5 326.88 L 467.5 336.88 Q 465.83 345.42 468.75 349.38 L 467.5 350.63 L 467.5 361.88 L 462.5 374.38 L 462.5 388.13 L 463.75 393.75 L 460 395.63 L 460 401.88 L 448.13 425 L 379.38 425 L 378.75 421.88 L 372.5 411.88 L 372.5 407.5 Q 369.17 408.91 370 405.63 L 367.5 405.63 L 366.25 401.25 L 357.5 401.25 Q 359.58 394.75 355 396.25 Q 356.88 400.94 353.13 400 L 350.63 398.75 L 336.25 406.88 L 335.63 408.75 L 333.75 405.63 L 335 401.88 L 333.75 397.5 L 328.75 397.5 L 328.75 395.63 L 331.88 395 L 333.75 394.38 L 330 393.75 L 328.75 389.38 L 332.5 388.75 L 331.88 380 L 331.25 382.5 L 326.25 381.25 L 324.38 376.25 L 321.25 377.5 L 320 380.63 Q 323.44 382.81 318.13 385 L 314.38 387.5 L 303.75 395.63 L 305 398.75 Q 302.03 400.94 294.38 400 Q 296.35 397.81 292.5 395.63 L 293.13 393.75 L 295.63 397.5 L 296.25 395 L 300.63 396.25 L 301.25 394.38 L 298.75 390.63 L 300 390.63 Q 299.06 394.37 303.75 392.5 L 305.63 388.75 Q 308.44 389.69 307.5 386.88 L 306.88 385 L 309.38 386.25 L 308.75 384.38 L 312.5 375 L 316.25 373.13 L 310 368.13 L 317.5 363.13 L 317.5 361.25 Q 322.19 363.13 321.25 359.38 L 320.63 357.5 Q 327.5 359.38 329.38 356.25 L 330 358.75 L 338.13 360 L 338.13 358.75 Q 333.44 360 335 356.25 Q 338.71 359.67 346.88 360 L 349.38 358.75 Q 350.94 361.56 356.88 360 L 360.63 362.5 L 366.25 352.5 L 363.13 353.75 L 362.5 346.88 L 363.75 343.75 Q 358.59 341.67 360 346.88 L 357.5 346.88 Q 358.44 349.69 355.63 348.75 L 353.13 348.75 L 350 349.38 L 350.63 351.25 L 346.88 350 L 344.38 351.25 L 344.38 350 Q 366.28 342.53 381.88 328.75 L 395.63 323.75 L 406.25 314.38 L 418.75 286.88 L 418.75 269.38 L 415 260.63 Q 415.94 252.97 413.75 250 L 421.25 244.38 L 427.5 235.63 L 428.75 230.63 Q 424.73 226.52 415.63 227.5 L 409.38 230 L 403.75 223.13 L 409.38 220 Z M 298 330 L 298 333 L 299 333 L 298 330 Z M 333 361 L 336 364 L 338 363 L 333 361 Z M 351 361 L 350 363 L 348 363 L 343 364 L 339 363 L 338 365 Q 352 367 360 363 L 351 361 Z M 359 365 L 359 367 L 361 366 L 359 365 Z M 354 368 L 350 373 L 351 379 L 353 379 L 351 376 L 356 368 L 354 368 Z M 359 369 Q 362 370 361 378 Q 360 382 354 381 L 356 384 L 359 383 Q 365 380 363 371 L 359 369 Z M 329 374 L 329 376 L 331 374 L 329 374 Z M 356 385 L 354 389 L 355 392 Q 354 396 357 395 L 359 392 L 358 390 Q 362 389 360 394 Q 365 395 363 388 Q 360 383 358 386 L 356 385 Z M 297 398 L 297 399 L 301 398 L 297 398 Z " style="fill: rgba(67, 98, 107, 1); stroke: rgba(67, 98, 107, 1);"/><path d="M 320.63 231.25 L 321.25 234.38 L 320 234.38 L 320.63 231.25 Z " style="fill: rgba(67, 98, 107, 1); stroke: rgba(67, 98, 107, 1);"/><path d="M 300.63 262.5 L 299.38 265 L 296.25 264.38 L 300.63 262.5 Z " style="fill: rgba(67, 98, 107, 1); stroke: rgba(67, 98, 107, 1);"/><path d="M 255.63 290 L 256.25 296.88 L 255 296.88 L 255.63 290 Z " style="fill: rgba(67, 98, 107, 1); stroke: rgba(67, 98, 107, 1);"/><path d="M 254.38 298.75 L 255 303.13 L 253.75 304.38 L 253.13 315 L 252.5 304.38 L 254.38 298.75 Z " style="fill: rgba(67, 98, 107, 1); stroke: rgba(67, 98, 107, 1);"/><path d="M 251.88 320 L 252.5 323.13 L 251.25 323.13 L 251.88 320 Z " style="fill: rgba(67, 98, 107, 1); stroke: rgba(67, 98, 107, 1);"/><path d="M 319.38 321.25 L 322.5 323.13 Q 315.88 327.75 313.75 336.88 L 315 340.63 L 313.13 340 L 308.13 336.25 L 307.5 338.13 L 312.5 345.63 L 312.5 348.75 L 306.25 344.38 L 303.75 338.13 L 312.5 331.88 L 310 328.13 Q 311.46 324.06 316.25 325 Q 314.84 321.67 318.13 322.5 L 319.38 321.25 Z " style="fill: rgba(67, 98, 107, 1); stroke: rgba(67, 98, 107, 1);"/><path d="M 295 323.75 L 302.5 326.88 L 296.88 341.25 L 295 340.63 Q 294.46 353.83 287.5 360.63 L 287.5 368.75 L 285 368.13 L 286.25 366.88 L 286.25 356.88 L 290 348.13 L 290 343.13 L 292.5 340.63 L 291.88 338.75 L 295 336.88 L 296.25 329.38 L 295 323.75 Z " style="fill: rgba(67, 98, 107, 1); stroke: rgba(67, 98, 107, 1);"/><path d="M 306.88 325 L 304.38 328.75 L 306.88 325 Z " style="fill: rgba(67, 98, 107, 1); stroke: rgba(67, 98, 107, 1);"/><path d="M 374.38 326.25 Q 377.19 325.31 376.25 328.13 L 374.38 326.25 Z " style="fill: rgba(67, 98, 107, 1); stroke: rgba(67, 98, 107, 1);"/><path d="M 250.63 338.75 L 251.25 349.38 L 250 349.38 L 250.63 338.75 Z " style="fill: rgba(67, 98, 107, 1); stroke: rgba(67, 98, 107, 1);"/><path d="M 298.75 341.25 L 303.75 344.38 L 306.25 348.13 L 302.5 350.63 L 301.88 352.5 L 300.63 350 L 296.25 352.5 L 291.88 363.75 L 291.25 358.13 L 298.75 344.38 L 298.75 341.25 Z " style="fill: rgba(67, 98, 107, 1); stroke: rgba(67, 98, 107, 1);"/><path d="M 279.38 363.75 L 280 368.13 L 278.75 368.13 L 279.38 363.75 Z " style="fill: rgba(67, 98, 107, 1); stroke: rgba(67, 98, 107, 1);"/><path d="M 245.63 365 L 246.25 369.38 L 245 369.38 L 245.63 365 Z " style="fill: rgba(67, 98, 107, 1); stroke: rgba(67, 98, 107, 1);"/><path d="M 288.13 376.25 L 291.25 388.13 L 290 388.13 L 287.5 380.63 L 288.13 376.25 Z " style="fill: rgba(67, 98, 107, 1); stroke: rgba(67, 98, 107, 1);"/><path d="M 243.13 377.5 L 243.75 379.38 L 241.25 380.63 L 243.13 377.5 Z " style="fill: rgba(67, 98, 107, 1); stroke: rgba(67, 98, 107, 1);"/><path d="M 278.13 386.25 Q 282.03 387.97 281.25 394.38 L 280 394.38 L 278.13 386.25 Z " style="fill: rgba(67, 98, 107, 1); stroke: rgba(67, 98, 107, 1);"/><path d="M 244.38 390 L 248.13 392.5 L 251.25 393.75 L 250.63 396.25 L 248.13 395 L 245.63 398.75 L 242.5 396.88 L 246.25 395.63 L 243.75 394.38 L 246.25 393.13 L 244.38 390 Z " style="fill: rgba(67, 98, 107, 1); stroke: rgba(67, 98, 107, 1);"/><path d="M 238.13 395 L 237.5 396.88 L 236.88 400 L 236.25 396.88 L 238.13 395 Z " style="fill: rgba(67, 98, 107, 1); stroke: rgba(67, 98, 107, 1);"/><path d="M 248.13 397.5 L 250.63 401.25 Q 247.81 402.19 248.75 399.38 L 248.13 397.5 Z " style="fill: rgba(67, 98, 107, 1); stroke: rgba(67, 98, 107, 1);"/><path d="M 243.13 401.25 L 246.25 403.13 L 244.38 402.5 L 243.13 401.25 Z " style="fill: rgba(67, 98, 107, 1); stroke: rgba(67, 98, 107, 1);"/><path d="M 283.13 402.5 Q 285.94 403.44 285 408.13 L 283.75 408.13 L 283.13 402.5 Z " style="fill: rgba(67, 98, 107, 1); stroke: rgba(67, 98, 107, 1);"/><path d="M 296.88 402.5 Q 304.69 400.31 306.88 403.75 Q 309.06 400.31 316.88 402.5 L 320 403.13 L 312.5 406.25 Q 310.63 410.94 314.38 410 L 316.25 409.38 L 308.13 412.5 L 304.38 411.25 Q 302.81 414.06 296.88 412.5 L 296.88 411.25 Q 301.56 412.5 300 408.75 L 296.25 408.13 L 302.5 405.63 Q 295.94 405.31 296.88 402.5 Z M 311 406 L 310 409 L 311 409 L 311 406 Z M 306 408 L 301 409 L 307 410 L 306 408 Z " style="fill: rgba(67, 98, 107, 1); stroke: rgba(67, 98, 107, 1);"/><path d="M 248.13 403.75 L 250 406.88 L 241.88 407.5 L 241.88 406.25 Q 248.67 408.33 248.13 403.75 Z " style="fill: rgba(67, 98, 107, 1); stroke: rgba(67, 98, 107, 1);"/><path d="M 266.88 403.75 Q 270.62 402.66 268.75 408.13 L 267.5 408.13 L 266.88 403.75 Z " style="fill: rgba(67, 98, 107, 1); stroke: rgba(67, 98, 107, 1);"/><path d="M 236.88 406.25 Q 239.69 411.56 242.5 409.38 L 240.63 413.75 Q 237.34 414.79 238.75 410.63 L 235 408.13 L 236.88 406.25 Z " style="fill: rgba(67, 98, 107, 1); stroke: rgba(67, 98, 107, 1);"/><path d="M 318.13 406.25 L 318.75 410.63 L 317.5 410.63 L 318.13 406.25 Z " style="fill: rgba(67, 98, 107, 1); stroke: rgba(67, 98, 107, 1);"/><path d="M 308.13 413.75 L 310 414.38 L 306.88 416.25 L 308.13 413.75 Z " style="fill: rgba(67, 98, 107, 1); stroke: rgba(67, 98, 107, 1);"/><path d="M 326.88 415 L 333.75 415.63 L 330.63 420 Q 333.91 418.96 332.5 423.13 L 330.63 425 L 246.25 425 L 247.5 420.63 L 246.25 417.5 L 258.13 417.5 L 278.13 421.25 L 280.63 421.25 L 283.13 422.5 L 285.63 422.5 L 295.63 422.5 L 296.88 421.25 L 299.38 421.25 L 311.88 418.75 L 312.5 421.25 L 325 420.63 L 313.75 419.38 L 320 418.13 L 315 416.88 L 320.63 416.25 L 323.13 416.25 L 326.88 415 Z " style="fill: rgba(67, 98, 107, 1); stroke: rgba(67, 98, 107, 1);"/><path d="M 241.88 416.25 L 245 416.88 Q 246.56 423.44 243.13 425 L 241.88 416.25 Z " style="fill: rgba(67, 98, 107, 1); stroke: rgba(67, 98, 107, 1);"/><path d="M 301.88 417.5 L 305 418.13 L 301.88 418.75 L 301.88 417.5 Z " style="fill: rgba(67, 98, 107, 1); stroke: rgba(67, 98, 107, 1);"/><path d="M 296.88 418.75 L 300 419.38 L 296.88 420 L 296.88 418.75 Z " style="fill: rgba(67, 98, 107, 1); stroke: rgba(67, 98, 107, 1);"/></g></svg>